<?xml version="1.0" encoding="utf-8"?>
<svg viewBox="8.245 8.369 573.942 442.833" xmlns="http://www.w3.org/2000/svg">
  <rect x="0" y="0" width="100%" height="100%" fill="#ffffff"/>
  <g transform="matrix(1.1037, 0, 0, 1.1037, 252.950104, 252.950104)" id="768112">
    <g style="" vector-effect="non-scaling-stroke">
      <g transform="matrix(1 0 0 1 -0.2665 -0.2665)">
        <path style="stroke: none; stroke-width: 1; stroke-dasharray: none; stroke-linecap: butt; stroke-dashoffset: 0; stroke-linejoin: round; stroke-miterlimit: 1.4142; is-custom-font: none; font-file-url: none; fill: none; fill-rule: evenodd; opacity: 1;" transform=" translate(-187.7335, -187.7335)" d="M 0 0 h 375.467 v 375.467 H 0 z" stroke-linecap="round"/>
      </g>
      <g transform="matrix(1 0 0 1 -9.719 0.9775)">
        <path style="stroke: none; stroke-width: 1; stroke-dasharray: none; stroke-linecap: butt; stroke-dashoffset: 0; stroke-linejoin: round; stroke-miterlimit: 1.4142; is-custom-font: none; font-file-url: none; fill: rgb(20,16,6); fill-rule: evenodd; opacity: 1;" transform=" translate(-178.281, -188.9775)" d="M 283.451 105.481 C 283.451 106.269 282.807 106.915 282.017 106.915 L 279.056 106.915 C 278.267 106.915 277.622 106.269 277.622 105.481 L 277.622 102.519 C 277.622 101.731 278.267 101.085 279.056 101.085 L 282.017 101.085 C 282.807 101.085 283.451 101.731 283.451 102.519 L 283.451 105.481 Z M 276.281 105.481 C 276.281 106.269 275.636 106.915 274.847 106.915 L 271.885 106.915 C 271.096 106.915 270.451 106.269 270.451 105.481 L 270.451 102.519 C 270.451 101.731 271.096 101.085 271.885 101.085 L 274.847 101.085 C 275.636 101.085 276.281 101.731 276.281 102.519 L 276.281 105.481 Z M 269.11 105.481 C 269.11 106.269 268.465 106.915 267.676 106.915 L 264.715 106.915 C 263.925 106.915 263.28 106.269 263.28 105.481 L 263.28 102.519 C 263.28 101.731 263.925 101.085 264.715 101.085 L 267.676 101.085 C 268.465 101.085 269.11 101.731 269.11 102.519 L 269.11 105.481 Z M 261.94 105.481 C 261.94 106.269 261.294 106.915 260.505 106.915 L 257.544 106.915 C 256.754 106.915 256.11 106.269 256.11 105.481 L 256.11 102.519 C 256.11 101.731 256.754 101.085 257.544 101.085 L 260.505 101.085 C 261.294 101.085 261.94 101.731 261.94 102.519 L 261.94 105.481 Z M 254.769 105.481 C 254.769 106.269 254.123 106.915 253.334 106.915 L 250.373 106.915 C 249.584 106.915 248.939 106.269 248.939 105.481 L 248.939 102.519 C 248.939 101.731 249.584 101.085 250.373 101.085 L 253.334 101.085 C 254.123 101.085 254.769 101.731 254.769 102.519 L 254.769 105.481 Z M 247.598 105.481 C 247.598 106.269 246.952 106.915 246.163 106.915 L 243.202 106.915 C 242.413 106.915 241.768 106.269 241.768 105.481 L 241.768 102.519 C 241.768 101.731 242.413 101.085 243.202 101.085 L 246.163 101.085 C 246.952 101.085 247.598 101.731 247.598 102.519 L 247.598 105.481 Z M 119.527 148.505 C 119.527 149.294 118.881 149.94 118.093 149.94 L 115.131 149.94 C 114.343 149.94 113.697 149.294 113.697 148.505 L 113.697 145.544 C 113.697 144.755 114.343 144.11 115.131 144.11 L 118.093 144.11 C 118.881 144.11 119.527 144.755 119.527 145.544 L 119.527 148.505 Z M 233.256 105.481 C 233.256 106.269 232.61 106.915 231.822 106.915 L 228.86 106.915 C 228.072 106.915 227.426 106.269 227.426 105.481 L 227.426 102.519 C 227.426 101.731 228.072 101.085 228.86 101.085 L 231.822 101.085 C 232.61 101.085 233.256 101.731 233.256 102.519 L 233.256 105.481 Z M 226.085 105.481 C 226.085 106.269 225.44 106.915 224.651 106.915 L 221.689 106.915 C 220.901 106.915 220.255 106.269 220.255 105.481 L 220.255 102.519 C 220.255 101.731 220.901 101.085 221.689 101.085 L 224.651 101.085 C 225.44 101.085 226.085 101.731 226.085 102.519 L 226.085 105.481 Z M 218.914 105.481 C 218.914 106.269 218.269 106.915 217.48 106.915 L 214.518 106.915 C 213.73 106.915 213.085 106.269 213.085 105.481 L 213.085 102.519 C 213.085 101.731 213.73 101.085 214.518 101.085 L 217.48 101.085 C 218.269 101.085 218.914 101.731 218.914 102.519 L 218.914 105.481 Z M 211.743 105.481 C 211.743 106.269 211.098 106.915 210.31 106.915 L 207.347 106.915 C 206.559 106.915 205.914 106.269 205.914 105.481 L 205.914 102.519 C 205.914 101.731 206.559 101.085 207.347 101.085 L 210.31 101.085 C 211.098 101.085 211.743 101.731 211.743 102.519 L 211.743 105.481 Z M 204.572 105.481 C 204.572 106.269 203.928 106.915 203.139 106.915 L 200.178 106.915 C 199.388 106.915 198.743 106.269 198.743 105.481 L 198.743 102.519 C 198.743 101.731 199.388 101.085 200.178 101.085 L 203.139 101.085 C 203.928 101.085 204.572 101.731 204.572 102.519 L 204.572 105.481 Z M 197.402 105.481 C 197.402 106.269 196.757 106.915 195.968 106.915 L 193.007 106.915 C 192.217 106.915 191.572 106.269 191.572 105.481 L 191.572 102.519 C 191.572 101.731 192.217 101.085 193.007 101.085 L 195.968 101.085 C 196.757 101.085 197.402 101.731 197.402 102.519 L 197.402 105.481 Z M 190.231 105.481 C 190.231 106.269 189.586 106.915 188.797 106.915 L 185.836 106.915 C 185.047 106.915 184.401 106.269 184.401 105.481 L 184.401 102.519 C 184.401 101.731 185.047 101.085 185.836 101.085 L 188.797 101.085 C 189.586 101.085 190.231 101.731 190.231 102.519 L 190.231 105.481 Z M 183.061 105.481 C 183.061 106.269 182.415 106.915 181.626 106.915 L 178.665 106.915 C 177.876 106.915 177.23 106.269 177.23 105.481 L 177.23 102.519 C 177.23 101.731 177.876 101.085 178.665 101.085 L 181.626 101.085 C 182.415 101.085 183.061 101.731 183.061 102.519 L 183.061 105.481 Z M 175.89 105.481 C 175.89 106.269 175.244 106.915 174.455 106.915 L 171.494 106.915 C 170.705 106.915 170.059 106.269 170.059 105.481 L 170.059 102.519 C 170.059 101.731 170.705 101.085 171.494 101.085 L 174.455 101.085 C 175.244 101.085 175.89 101.731 175.89 102.519 L 175.89 105.481 Z M 168.719 105.481 C 168.719 106.269 168.073 106.915 167.284 106.915 L 164.323 106.915 C 163.534 106.915 162.889 106.269 162.889 105.481 L 162.889 102.519 C 162.889 101.731 163.534 101.085 164.323 101.085 L 167.284 101.085 C 168.073 101.085 168.719 101.731 168.719 102.519 L 168.719 105.481 Z M 161.548 105.481 C 161.548 106.269 160.903 106.915 160.113 106.915 L 157.152 106.915 C 156.363 106.915 155.718 106.269 155.718 105.481 L 155.718 102.519 C 155.718 101.731 156.363 101.085 157.152 101.085 L 160.113 101.085 C 160.903 101.085 161.548 101.731 161.548 102.519 L 161.548 105.481 Z M 154.377 105.481 C 154.377 106.269 153.732 106.915 152.943 106.915 L 149.981 106.915 C 149.193 106.915 148.548 106.269 148.548 105.481 L 148.548 102.519 C 148.548 101.731 149.193 101.085 149.981 101.085 L 152.943 101.085 C 153.732 101.085 154.377 101.731 154.377 102.519 L 154.377 105.481 Z M 147.206 105.481 C 147.206 106.269 146.561 106.915 145.773 106.915 L 142.81 106.915 C 142.022 106.915 141.377 106.269 141.377 105.481 L 141.377 102.519 C 141.377 101.731 142.022 101.085 142.81 101.085 L 145.773 101.085 C 146.561 101.085 147.206 101.731 147.206 102.519 L 147.206 105.481 Z M 283.451 112.652 C 283.451 113.44 282.807 114.086 282.017 114.086 L 279.056 114.086 C 278.267 114.086 277.622 113.44 277.622 112.652 L 277.622 109.69 C 277.622 108.901 278.267 108.256 279.056 108.256 L 282.017 108.256 C 282.807 108.256 283.451 108.901 283.451 109.69 L 283.451 112.652 Z M 276.281 112.652 C 276.281 113.44 275.636 114.086 274.847 114.086 L 271.885 114.086 C 271.096 114.086 270.451 113.44 270.451 112.652 L 270.451 109.69 C 270.451 108.901 271.096 108.256 271.885 108.256 L 274.847 108.256 C 275.636 108.256 276.281 108.901 276.281 109.69 L 276.281 112.652 Z M 269.11 112.652 C 269.11 113.44 268.465 114.086 267.676 114.086 L 264.715 114.086 C 263.925 114.086 263.28 113.44 263.28 112.652 L 263.28 109.69 C 263.28 108.901 263.925 108.256 264.715 108.256 L 267.676 108.256 C 268.465 108.256 269.11 108.901 269.11 109.69 L 269.11 112.652 Z M 261.94 112.652 C 261.94 113.44 261.294 114.086 260.505 114.086 L 257.544 114.086 C 256.754 114.086 256.11 113.44 256.11 112.652 L 256.11 109.69 C 256.11 108.901 256.754 108.256 257.544 108.256 L 260.505 108.256 C 261.294 108.256 261.94 108.901 261.94 109.69 L 261.94 112.652 Z M 254.769 112.652 C 254.769 113.44 254.123 114.086 253.334 114.086 L 250.373 114.086 C 249.584 114.086 248.939 113.44 248.939 112.652 L 248.939 109.69 C 248.939 108.901 249.584 108.256 250.373 108.256 L 253.334 108.256 C 254.123 108.256 254.769 108.901 254.769 109.69 L 254.769 112.652 Z M 247.598 112.652 C 247.598 113.44 246.952 114.086 246.163 114.086 L 243.202 114.086 C 242.413 114.086 241.768 113.44 241.768 112.652 L 241.768 109.69 C 241.768 108.901 242.413 108.256 243.202 108.256 L 246.163 108.256 C 246.952 108.256 247.598 108.901 247.598 109.69 L 247.598 112.652 Z M 240.427 112.652 C 240.427 113.44 239.781 114.086 238.993 114.086 L 236.031 114.086 C 235.243 114.086 234.597 113.44 234.597 112.652 L 234.597 109.69 C 234.597 108.901 235.243 108.256 236.031 108.256 L 238.993 108.256 C 239.781 108.256 240.427 108.901 240.427 109.69 L 240.427 112.652 Z M 233.256 112.652 C 233.256 113.44 232.61 114.086 231.822 114.086 L 228.86 114.086 C 228.072 114.086 227.426 113.44 227.426 112.652 L 227.426 109.69 C 227.426 108.901 228.072 108.256 228.86 108.256 L 231.822 108.256 C 232.61 108.256 233.256 108.901 233.256 109.69 L 233.256 112.652 Z M 226.085 112.652 C 226.085 113.44 225.44 114.086 224.651 114.086 L 221.689 114.086 C 220.901 114.086 220.255 113.44 220.255 112.652 L 220.255 109.69 C 220.255 108.901 220.901 108.256 221.689 108.256 L 224.651 108.256 C 225.44 108.256 226.085 108.901 226.085 109.69 L 226.085 112.652 Z M 218.914 112.652 C 218.914 113.44 218.269 114.086 217.48 114.086 L 214.518 114.086 C 213.73 114.086 213.085 113.44 213.085 112.652 L 213.085 109.69 C 213.085 108.901 213.73 108.256 214.518 108.256 L 217.48 108.256 C 218.269 108.256 218.914 108.901 218.914 109.69 L 218.914 112.652 Z M 211.743 112.652 C 211.743 113.44 211.098 114.086 210.31 114.086 L 207.347 114.086 C 206.559 114.086 205.914 113.44 205.914 112.652 L 205.914 109.69 C 205.914 108.901 206.559 108.256 207.347 108.256 L 210.31 108.256 C 211.098 108.256 211.743 108.901 211.743 109.69 L 211.743 112.652 Z M 204.572 112.652 C 204.572 113.44 203.928 114.086 203.139 114.086 L 200.178 114.086 C 199.388 114.086 198.743 113.44 198.743 112.652 L 198.743 109.69 C 198.743 108.901 199.388 108.256 200.178 108.256 L 203.139 108.256 C 203.928 108.256 204.572 108.901 204.572 109.69 L 204.572 112.652 Z M 197.402 112.652 C 197.402 113.44 196.757 114.086 195.968 114.086 L 193.007 114.086 C 192.217 114.086 191.572 113.44 191.572 112.652 L 191.572 109.69 C 191.572 108.901 192.217 108.256 193.007 108.256 L 195.968 108.256 C 196.757 108.256 197.402 108.901 197.402 109.69 L 197.402 112.652 Z M 190.231 112.652 C 190.231 113.44 189.586 114.086 188.797 114.086 L 185.836 114.086 C 185.047 114.086 184.401 113.44 184.401 112.652 L 184.401 109.69 C 184.401 108.901 185.047 108.256 185.836 108.256 L 188.797 108.256 C 189.586 108.256 190.231 108.901 190.231 109.69 L 190.231 112.652 Z M 183.061 112.652 C 183.061 113.44 182.415 114.086 181.626 114.086 L 178.665 114.086 C 177.876 114.086 177.23 113.44 177.23 112.652 L 177.23 109.69 C 177.23 108.901 177.876 108.256 178.665 108.256 L 181.626 108.256 C 182.415 108.256 183.061 108.901 183.061 109.69 L 183.061 112.652 Z M 175.89 112.652 C 175.89 113.44 175.244 114.086 174.455 114.086 L 171.494 114.086 C 170.705 114.086 170.059 113.44 170.059 112.652 L 170.059 109.69 C 170.059 108.901 170.705 108.256 171.494 108.256 L 174.455 108.256 C 175.244 108.256 175.89 108.901 175.89 109.69 L 175.89 112.652 Z M 168.719 112.652 C 168.719 113.44 168.073 114.086 167.284 114.086 L 164.323 114.086 C 163.534 114.086 162.889 113.44 162.889 112.652 L 162.889 109.69 C 162.889 108.901 163.534 108.256 164.323 108.256 L 167.284 108.256 C 168.073 108.256 168.719 108.901 168.719 109.69 L 168.719 112.652 Z M 161.548 112.652 C 161.548 113.44 160.903 114.086 160.113 114.086 L 157.152 114.086 C 156.363 114.086 155.718 113.44 155.718 112.652 L 155.718 109.69 C 155.718 108.901 156.363 108.256 157.152 108.256 L 160.113 108.256 C 160.903 108.256 161.548 108.901 161.548 109.69 L 161.548 112.652 Z M 154.377 112.652 C 154.377 113.44 153.732 114.086 152.943 114.086 L 149.981 114.086 C 149.193 114.086 148.548 113.44 148.548 112.652 L 148.548 109.69 C 148.548 108.901 149.193 108.256 149.981 108.256 L 152.943 108.256 C 153.732 108.256 154.377 108.901 154.377 109.69 L 154.377 112.652 Z M 147.206 112.652 C 147.206 113.44 146.561 114.086 145.773 114.086 L 142.81 114.086 C 142.022 114.086 141.377 113.44 141.377 112.652 L 141.377 109.69 C 141.377 108.901 142.022 108.256 142.81 108.256 L 145.773 108.256 C 146.561 108.256 147.206 108.901 147.206 109.69 L 147.206 112.652 Z M 283.451 177.189 C 283.451 177.978 282.807 178.623 282.017 178.623 L 279.056 178.623 C 278.267 178.623 277.622 177.978 277.622 177.189 L 277.622 174.228 C 277.622 173.438 278.267 172.793 279.056 172.793 L 282.017 172.793 C 282.807 172.793 283.451 173.438 283.451 174.228 L 283.451 177.189 Z M 276.281 177.189 C 276.281 177.978 275.636 178.623 274.847 178.623 L 271.885 178.623 C 271.096 178.623 270.451 177.978 270.451 177.189 L 270.451 174.228 C 270.451 173.438 271.096 172.793 271.885 172.793 L 274.847 172.793 C 275.636 172.793 276.281 173.438 276.281 174.228 L 276.281 177.189 Z M 269.11 177.189 C 269.11 177.978 268.465 178.623 267.676 178.623 L 264.715 178.623 C 263.925 178.623 263.28 177.978 263.28 177.189 L 263.28 174.228 C 263.28 173.438 263.925 172.793 264.715 172.793 L 267.676 172.793 C 268.465 172.793 269.11 173.438 269.11 174.228 L 269.11 177.189 Z M 261.94 177.189 C 261.94 177.978 261.294 178.623 260.505 178.623 L 257.544 178.623 C 256.754 178.623 256.11 177.978 256.11 177.189 L 256.11 174.228 C 256.11 173.438 256.754 172.793 257.544 172.793 L 260.505 172.793 C 261.294 172.793 261.94 173.438 261.94 174.228 L 261.94 177.189 Z M 254.769 177.189 C 254.769 177.978 254.123 178.623 253.334 178.623 L 250.373 178.623 C 249.584 178.623 248.939 177.978 248.939 177.189 L 248.939 174.228 C 248.939 173.438 249.584 172.793 250.373 172.793 L 253.334 172.793 C 254.123 172.793 254.769 173.438 254.769 174.228 L 254.769 177.189 Z M 198.105 162.868 C 198.105 163.657 197.459 164.303 196.671 164.303 L 193.709 164.303 C 192.92 164.303 192.275 163.657 192.275 162.868 L 192.275 159.907 C 192.275 159.118 192.92 158.473 193.709 158.473 L 196.671 158.473 C 197.459 158.473 198.105 159.118 198.105 159.907 L 198.105 162.868 Z M 240.427 177.189 C 240.427 177.978 239.781 178.623 238.993 178.623 L 236.031 178.623 C 235.243 178.623 234.597 177.978 234.597 177.189 L 234.597 174.228 C 234.597 173.438 235.243 172.793 236.031 172.793 L 238.993 172.793 C 239.781 172.793 240.427 173.438 240.427 174.228 L 240.427 177.189 Z M 233.256 177.189 C 233.256 177.978 232.61 178.623 231.822 178.623 L 228.86 178.623 C 228.072 178.623 227.426 177.978 227.426 177.189 L 227.426 174.228 C 227.426 173.438 228.072 172.793 228.86 172.793 L 231.822 172.793 C 232.61 172.793 233.256 173.438 233.256 174.228 L 233.256 177.189 Z M 226.085 177.189 C 226.085 177.978 225.44 178.623 224.651 178.623 L 221.689 178.623 C 220.901 178.623 220.255 177.978 220.255 177.189 L 220.255 174.228 C 220.255 173.438 220.901 172.793 221.689 172.793 L 224.651 172.793 C 225.44 172.793 226.085 173.438 226.085 174.228 L 226.085 177.189 Z M 218.914 177.189 C 218.914 177.978 218.269 178.623 217.48 178.623 L 214.518 178.623 C 213.73 178.623 213.085 177.978 213.085 177.189 L 213.085 174.228 C 213.085 173.438 213.73 172.793 214.518 172.793 L 217.48 172.793 C 218.269 172.793 218.914 173.438 218.914 174.228 L 218.914 177.189 Z M 211.743 177.189 C 211.743 177.978 211.098 178.623 210.31 178.623 L 207.347 178.623 C 206.559 178.623 205.914 177.978 205.914 177.189 L 205.914 174.228 C 205.914 173.438 206.559 172.793 207.347 172.793 L 210.31 172.793 C 211.098 172.793 211.743 173.438 211.743 174.228 L 211.743 177.189 Z M 204.572 177.189 C 204.572 177.978 203.928 178.623 203.139 178.623 L 200.178 178.623 C 199.388 178.623 198.743 177.978 198.743 177.189 L 198.743 174.228 C 198.743 173.438 199.388 172.793 200.178 172.793 L 203.139 172.793 C 203.928 172.793 204.572 173.438 204.572 174.228 L 204.572 177.189 Z M 197.402 177.189 C 197.402 177.978 196.757 178.623 195.968 178.623 L 193.007 178.623 C 192.217 178.623 191.572 177.978 191.572 177.189 L 191.572 174.228 C 191.572 173.438 192.217 172.793 193.007 172.793 L 195.968 172.793 C 196.757 172.793 197.402 173.438 197.402 174.228 L 197.402 177.189 Z M 190.231 177.189 C 190.231 177.978 189.586 178.623 188.797 178.623 L 185.836 178.623 C 185.047 178.623 184.401 177.978 184.401 177.189 L 184.401 174.228 C 184.401 173.438 185.047 172.793 185.836 172.793 L 188.797 172.793 C 189.586 172.793 190.231 173.438 190.231 174.228 L 190.231 177.189 Z M 183.061 177.189 C 183.061 177.978 182.415 178.623 181.626 178.623 L 178.665 178.623 C 177.876 178.623 177.23 177.978 177.23 177.189 L 177.23 174.228 C 177.23 173.438 177.876 172.793 178.665 172.793 L 181.626 172.793 C 182.415 172.793 183.061 173.438 183.061 174.228 L 183.061 177.189 Z M 175.89 177.189 C 175.89 177.978 175.244 178.623 174.455 178.623 L 171.494 178.623 C 170.705 178.623 170.059 177.978 170.059 177.189 L 170.059 174.228 C 170.059 173.438 170.705 172.793 171.494 172.793 L 174.455 172.793 C 175.244 172.793 175.89 173.438 175.89 174.228 L 175.89 177.189 Z M 168.719 177.189 C 168.719 177.978 168.073 178.623 167.284 178.623 L 164.323 178.623 C 163.534 178.623 162.889 177.978 162.889 177.189 L 162.889 174.228 C 162.889 173.438 163.534 172.793 164.323 172.793 L 167.284 172.793 C 168.073 172.793 168.719 173.438 168.719 174.228 L 168.719 177.189 Z M 161.548 177.189 C 161.548 177.978 160.903 178.623 160.113 178.623 L 157.152 178.623 C 156.363 178.623 155.718 177.978 155.718 177.189 L 155.718 174.228 C 155.718 173.438 156.363 172.793 157.152 172.793 L 160.113 172.793 C 160.903 172.793 161.548 173.438 161.548 174.228 L 161.548 177.189 Z M 154.377 177.189 C 154.377 177.978 153.732 178.623 152.943 178.623 L 149.981 178.623 C 149.193 178.623 148.548 177.978 148.548 177.189 L 148.548 174.228 C 148.548 173.438 149.193 172.793 149.981 172.793 L 152.943 172.793 C 153.732 172.793 154.377 173.438 154.377 174.228 L 154.377 177.189 Z M 147.206 177.189 C 147.206 177.978 146.561 178.623 145.773 178.623 L 142.81 178.623 C 142.022 178.623 141.377 177.978 141.377 177.189 L 141.377 174.228 C 141.377 173.438 142.022 172.793 142.81 172.793 L 145.773 172.793 C 146.561 172.793 147.206 173.438 147.206 174.228 L 147.206 177.189 Z M 283.451 184.36 C 283.451 185.149 282.807 185.793 282.017 185.793 L 279.056 185.793 C 278.267 185.793 277.622 185.149 277.622 184.36 L 277.622 181.398 C 277.622 180.609 278.267 179.964 279.056 179.964 L 282.017 179.964 C 282.807 179.964 283.451 180.609 283.451 181.398 L 283.451 184.36 Z M 276.281 184.36 C 276.281 185.149 275.636 185.793 274.847 185.793 L 271.885 185.793 C 271.096 185.793 270.451 185.149 270.451 184.36 L 270.451 181.398 C 270.451 180.609 271.096 179.964 271.885 179.964 L 274.847 179.964 C 275.636 179.964 276.281 180.609 276.281 181.398 L 276.281 184.36 Z M 269.11 184.36 C 269.11 185.149 268.465 185.793 267.676 185.793 L 264.715 185.793 C 263.925 185.793 263.28 185.149 263.28 184.36 L 263.28 181.398 C 263.28 180.609 263.925 179.964 264.715 179.964 L 267.676 179.964 C 268.465 179.964 269.11 180.609 269.11 181.398 L 269.11 184.36 Z M 261.94 184.36 C 261.94 185.149 261.294 185.793 260.505 185.793 L 257.544 185.793 C 256.754 185.793 256.11 185.149 256.11 184.36 L 256.11 181.398 C 256.11 180.609 256.754 179.964 257.544 179.964 L 260.505 179.964 C 261.294 179.964 261.94 180.609 261.94 181.398 L 261.94 184.36 Z M 254.769 184.36 C 254.769 185.149 254.123 185.793 253.334 185.793 L 250.373 185.793 C 249.584 185.793 248.939 185.149 248.939 184.36 L 248.939 181.398 C 248.939 180.609 249.584 179.964 250.373 179.964 L 253.334 179.964 C 254.123 179.964 254.769 180.609 254.769 181.398 L 254.769 184.36 Z M 247.598 184.36 C 247.598 185.149 246.952 185.793 246.163 185.793 L 243.202 185.793 C 242.413 185.793 241.768 185.149 241.768 184.36 L 241.768 181.398 C 241.768 180.609 242.413 179.964 243.202 179.964 L 246.163 179.964 C 246.952 179.964 247.598 180.609 247.598 181.398 L 247.598 184.36 Z M 240.427 184.36 C 240.427 185.149 239.781 185.793 238.993 185.793 L 236.031 185.793 C 235.243 185.793 234.597 185.149 234.597 184.36 L 234.597 181.398 C 234.597 180.609 235.243 179.964 236.031 179.964 L 238.993 179.964 C 239.781 179.964 240.427 180.609 240.427 181.398 L 240.427 184.36 Z M 233.256 184.36 C 233.256 185.149 232.61 185.793 231.822 185.793 L 228.86 185.793 C 228.072 185.793 227.426 185.149 227.426 184.36 L 227.426 181.398 C 227.426 180.609 228.072 179.964 228.86 179.964 L 231.822 179.964 C 232.61 179.964 233.256 180.609 233.256 181.398 L 233.256 184.36 Z M 226.085 184.36 C 226.085 185.149 225.44 185.793 224.651 185.793 L 221.689 185.793 C 220.901 185.793 220.255 185.149 220.255 184.36 L 220.255 181.398 C 220.255 180.609 220.901 179.964 221.689 179.964 L 224.651 179.964 C 225.44 179.964 226.085 180.609 226.085 181.398 L 226.085 184.36 Z M 218.914 184.36 C 218.914 185.149 218.269 185.793 217.48 185.793 L 214.518 185.793 C 213.73 185.793 213.085 185.149 213.085 184.36 L 213.085 181.398 C 213.085 180.609 213.73 179.964 214.518 179.964 L 217.48 179.964 C 218.269 179.964 218.914 180.609 218.914 181.398 L 218.914 184.36 Z M 211.743 184.36 C 211.743 185.149 211.098 185.793 210.31 185.793 L 207.347 185.793 C 206.559 185.793 205.914 185.149 205.914 184.36 L 205.914 181.398 C 205.914 180.609 206.559 179.964 207.347 179.964 L 210.31 179.964 C 211.098 179.964 211.743 180.609 211.743 181.398 L 211.743 184.36 Z M 204.572 184.36 C 204.572 185.149 203.928 185.793 203.139 185.793 L 200.178 185.793 C 199.388 185.793 198.743 185.149 198.743 184.36 L 198.743 181.398 C 198.743 180.609 199.388 179.964 200.178 179.964 L 203.139 179.964 C 203.928 179.964 204.572 180.609 204.572 181.398 L 204.572 184.36 Z M 197.402 184.36 C 197.402 185.149 196.757 185.793 195.968 185.793 L 193.007 185.793 C 192.217 185.793 191.572 185.149 191.572 184.36 L 191.572 181.398 C 191.572 180.609 192.217 179.964 193.007 179.964 L 195.968 179.964 C 196.757 179.964 197.402 180.609 197.402 181.398 L 197.402 184.36 Z M 190.231 184.36 C 190.231 185.149 189.586 185.793 188.797 185.793 L 185.836 185.793 C 185.047 185.793 184.401 185.149 184.401 184.36 L 184.401 181.398 C 184.401 180.609 185.047 179.964 185.836 179.964 L 188.797 179.964 C 189.586 179.964 190.231 180.609 190.231 181.398 L 190.231 184.36 Z M 183.061 184.36 C 183.061 185.149 182.415 185.793 181.626 185.793 L 178.665 185.793 C 177.876 185.793 177.23 185.149 177.23 184.36 L 177.23 181.398 C 177.23 180.609 177.876 179.964 178.665 179.964 L 181.626 179.964 C 182.415 179.964 183.061 180.609 183.061 181.398 L 183.061 184.36 Z M 175.89 184.36 C 175.89 185.149 175.244 185.793 174.455 185.793 L 171.494 185.793 C 170.705 185.793 170.059 185.149 170.059 184.36 L 170.059 181.398 C 170.059 180.609 170.705 179.964 171.494 179.964 L 174.455 179.964 C 175.244 179.964 175.89 180.609 175.89 181.398 L 175.89 184.36 Z M 168.719 184.36 C 168.719 185.149 168.073 185.793 167.284 185.793 L 164.323 185.793 C 163.534 185.793 162.889 185.149 162.889 184.36 L 162.889 181.398 C 162.889 180.609 163.534 179.964 164.323 179.964 L 167.284 179.964 C 168.073 179.964 168.719 180.609 168.719 181.398 L 168.719 184.36 Z M 161.548 184.36 C 161.548 185.149 160.903 185.793 160.113 185.793 L 157.152 185.793 C 156.363 185.793 155.718 185.149 155.718 184.36 L 155.718 181.398 C 155.718 180.609 156.363 179.964 157.152 179.964 L 160.113 179.964 C 160.903 179.964 161.548 180.609 161.548 181.398 L 161.548 184.36 Z M 154.377 184.36 C 154.377 185.149 153.732 185.793 152.943 185.793 L 149.981 185.793 C 149.193 185.793 148.548 185.149 148.548 184.36 L 148.548 181.398 C 148.548 180.609 149.193 179.964 149.981 179.964 L 152.943 179.964 C 153.732 179.964 154.377 180.609 154.377 181.398 L 154.377 184.36 Z M 147.206 184.36 C 147.206 185.149 146.561 185.793 145.773 185.793 L 142.81 185.793 C 142.022 185.793 141.377 185.149 141.377 184.36 L 141.377 181.398 C 141.377 180.609 142.022 179.964 142.81 179.964 L 145.773 179.964 C 146.561 179.964 147.206 180.609 147.206 181.398 L 147.206 184.36 Z M 283.451 218.779 C 283.451 219.568 282.807 220.213 282.017 220.213 L 279.056 220.213 C 278.267 220.213 277.622 219.568 277.622 218.779 L 277.622 215.818 C 277.622 215.029 278.267 214.383 279.056 214.383 L 282.017 214.383 C 282.807 214.383 283.451 215.029 283.451 215.818 L 283.451 218.779 Z M 276.281 218.779 C 276.281 219.568 275.636 220.213 274.847 220.213 L 271.885 220.213 C 271.096 220.213 270.451 219.568 270.451 218.779 L 270.451 215.818 C 270.451 215.029 271.096 214.383 271.885 214.383 L 274.847 214.383 C 275.636 214.383 276.281 215.029 276.281 215.818 L 276.281 218.779 Z M 198.105 193.681 C 198.105 194.47 197.459 195.116 196.671 195.116 L 193.709 195.116 C 192.92 195.116 192.275 194.47 192.275 193.681 L 192.275 190.72 C 192.275 189.931 192.92 189.286 193.709 189.286 L 196.671 189.286 C 197.459 189.286 198.105 189.931 198.105 190.72 L 198.105 193.681 Z M 261.94 218.779 C 261.94 219.568 261.294 220.213 260.505 220.213 L 257.544 220.213 C 256.754 220.213 256.11 219.568 256.11 218.779 L 256.11 215.818 C 256.11 215.029 256.754 214.383 257.544 214.383 L 260.505 214.383 C 261.294 214.383 261.94 215.029 261.94 215.818 L 261.94 218.779 Z M 254.769 218.779 C 254.769 219.568 254.123 220.213 253.334 220.213 L 250.373 220.213 C 249.584 220.213 248.939 219.568 248.939 218.779 L 248.939 215.818 C 248.939 215.029 249.584 214.383 250.373 214.383 L 253.334 214.383 C 254.123 214.383 254.769 215.029 254.769 215.818 L 254.769 218.779 Z M 247.598 218.779 C 247.598 219.568 246.952 220.213 246.163 220.213 L 243.202 220.213 C 242.413 220.213 241.768 219.568 241.768 218.779 L 241.768 215.818 C 241.768 215.029 242.413 214.383 243.202 214.383 L 246.163 214.383 C 246.952 214.383 247.598 215.029 247.598 215.818 L 247.598 218.779 Z M 240.427 218.779 C 240.427 219.568 239.781 220.213 238.993 220.213 L 236.031 220.213 C 235.243 220.213 234.597 219.568 234.597 218.779 L 234.597 215.818 C 234.597 215.029 235.243 214.383 236.031 214.383 L 238.993 214.383 C 239.781 214.383 240.427 215.029 240.427 215.818 L 240.427 218.779 Z M 233.256 218.779 C 233.256 219.568 232.61 220.213 231.822 220.213 L 228.86 220.213 C 228.072 220.213 227.426 219.568 227.426 218.779 L 227.426 215.818 C 227.426 215.029 228.072 214.383 228.86 214.383 L 231.822 214.383 C 232.61 214.383 233.256 215.029 233.256 215.818 L 233.256 218.779 Z M 226.085 218.779 C 226.085 219.568 225.44 220.213 224.651 220.213 L 221.689 220.213 C 220.901 220.213 220.255 219.568 220.255 218.779 L 220.255 215.818 C 220.255 215.029 220.901 214.383 221.689 214.383 L 224.651 214.383 C 225.44 214.383 226.085 215.029 226.085 215.818 L 226.085 218.779 Z M 218.914 218.779 C 218.914 219.568 218.269 220.213 217.48 220.213 L 214.518 220.213 C 213.73 220.213 213.085 219.568 213.085 218.779 L 213.085 215.818 C 213.085 215.029 213.73 214.383 214.518 214.383 L 217.48 214.383 C 218.269 214.383 218.914 215.029 218.914 215.818 L 218.914 218.779 Z M 211.743 218.779 C 211.743 219.568 211.098 220.213 210.31 220.213 L 207.347 220.213 C 206.559 220.213 205.914 219.568 205.914 218.779 L 205.914 215.818 C 205.914 215.029 206.559 214.383 207.347 214.383 L 210.31 214.383 C 211.098 214.383 211.743 215.029 211.743 215.818 L 211.743 218.779 Z M 204.572 218.779 C 204.572 219.568 203.928 220.213 203.139 220.213 L 200.178 220.213 C 199.388 220.213 198.743 219.568 198.743 218.779 L 198.743 215.818 C 198.743 215.029 199.388 214.383 200.178 214.383 L 203.139 214.383 C 203.928 214.383 204.572 215.029 204.572 215.818 L 204.572 218.779 Z M 197.402 218.779 C 197.402 219.568 196.757 220.213 195.968 220.213 L 193.007 220.213 C 192.217 220.213 191.572 219.568 191.572 218.779 L 191.572 215.818 C 191.572 215.029 192.217 214.383 193.007 214.383 L 195.968 214.383 C 196.757 214.383 197.402 215.029 197.402 215.818 L 197.402 218.779 Z M 190.231 218.779 C 190.231 219.568 189.586 220.213 188.797 220.213 L 185.836 220.213 C 185.047 220.213 184.401 219.568 184.401 218.779 L 184.401 215.818 C 184.401 215.029 185.047 214.383 185.836 214.383 L 188.797 214.383 C 189.586 214.383 190.231 215.029 190.231 215.818 L 190.231 218.779 Z M 183.061 218.779 C 183.061 219.568 182.415 220.213 181.626 220.213 L 178.665 220.213 C 177.876 220.213 177.23 219.568 177.23 218.779 L 177.23 215.818 C 177.23 215.029 177.876 214.383 178.665 214.383 L 181.626 214.383 C 182.415 214.383 183.061 215.029 183.061 215.818 L 183.061 218.779 Z M 175.89 218.779 C 175.89 219.568 175.244 220.213 174.455 220.213 L 171.494 220.213 C 170.705 220.213 170.059 219.568 170.059 218.779 L 170.059 215.818 C 170.059 215.029 170.705 214.383 171.494 214.383 L 174.455 214.383 C 175.244 214.383 175.89 215.029 175.89 215.818 L 175.89 218.779 Z M 168.719 218.779 C 168.719 219.568 168.073 220.213 167.284 220.213 L 164.323 220.213 C 163.534 220.213 162.889 219.568 162.889 218.779 L 162.889 215.818 C 162.889 215.029 163.534 214.383 164.323 214.383 L 167.284 214.383 C 168.073 214.383 168.719 215.029 168.719 215.818 L 168.719 218.779 Z M 161.548 218.779 C 161.548 219.568 160.903 220.213 160.113 220.213 L 157.152 220.213 C 156.363 220.213 155.718 219.568 155.718 218.779 L 155.718 215.818 C 155.718 215.029 156.363 214.383 157.152 214.383 L 160.113 214.383 C 160.903 214.383 161.548 215.029 161.548 215.818 L 161.548 218.779 Z M 154.377 218.779 C 154.377 219.568 153.732 220.213 152.943 220.213 L 149.981 220.213 C 149.193 220.213 148.548 219.568 148.548 218.779 L 148.548 215.818 C 148.548 215.029 149.193 214.383 149.981 214.383 L 152.943 214.383 C 153.732 214.383 154.377 215.029 154.377 215.818 L 154.377 218.779 Z M 147.206 218.779 C 147.206 219.568 146.561 220.213 145.773 220.213 L 142.81 220.213 C 142.022 220.213 141.377 219.568 141.377 218.779 L 141.377 215.818 C 141.377 215.029 142.022 214.383 142.81 214.383 L 145.773 214.383 C 146.561 214.383 147.206 215.029 147.206 215.818 L 147.206 218.779 Z M 283.451 211.608 C 283.451 212.398 282.807 213.043 282.017 213.043 L 279.056 213.043 C 278.267 213.043 277.622 212.398 277.622 211.608 L 277.622 208.647 C 277.622 207.858 278.267 207.213 279.056 207.213 L 282.017 207.213 C 282.807 207.213 283.451 207.858 283.451 208.647 L 283.451 211.608 Z M 276.281 211.608 C 276.281 212.398 275.636 213.043 274.847 213.043 L 271.885 213.043 C 271.096 213.043 270.451 212.398 270.451 211.608 L 270.451 208.647 C 270.451 207.858 271.096 207.213 271.885 207.213 L 274.847 207.213 C 275.636 207.213 276.281 207.858 276.281 208.647 L 276.281 211.608 Z M 269.11 211.608 C 269.11 212.398 268.465 213.043 267.676 213.043 L 264.715 213.043 C 263.925 213.043 263.28 212.398 263.28 211.608 L 263.28 208.647 C 263.28 207.858 263.925 207.213 264.715 207.213 L 267.676 207.213 C 268.465 207.213 269.11 207.858 269.11 208.647 L 269.11 211.608 Z M 261.94 211.608 C 261.94 212.398 261.294 213.043 260.505 213.043 L 257.544 213.043 C 256.754 213.043 256.11 212.398 256.11 211.608 L 256.11 208.647 C 256.11 207.858 256.754 207.213 257.544 207.213 L 260.505 207.213 C 261.294 207.213 261.94 207.858 261.94 208.647 L 261.94 211.608 Z M 254.769 211.608 C 254.769 212.398 254.123 213.043 253.334 213.043 L 250.373 213.043 C 249.584 213.043 248.939 212.398 248.939 211.608 L 248.939 208.647 C 248.939 207.858 249.584 207.213 250.373 207.213 L 253.334 207.213 C 254.123 207.213 254.769 207.858 254.769 208.647 L 254.769 211.608 Z M 247.598 211.608 C 247.598 212.398 246.952 213.043 246.163 213.043 L 243.202 213.043 C 242.413 213.043 241.768 212.398 241.768 211.608 L 241.768 208.647 C 241.768 207.858 242.413 207.213 243.202 207.213 L 246.163 207.213 C 246.952 207.213 247.598 207.858 247.598 208.647 L 247.598 211.608 Z M 240.427 211.608 C 240.427 212.398 239.781 213.043 238.993 213.043 L 236.031 213.043 C 235.243 213.043 234.597 212.398 234.597 211.608 L 234.597 208.647 C 234.597 207.858 235.243 207.213 236.031 207.213 L 238.993 207.213 C 239.781 207.213 240.427 207.858 240.427 208.647 L 240.427 211.608 Z M 233.256 211.608 C 233.256 212.398 232.61 213.043 231.822 213.043 L 228.86 213.043 C 228.072 213.043 227.426 212.398 227.426 211.608 L 227.426 208.647 C 227.426 207.858 228.072 207.213 228.86 207.213 L 231.822 207.213 C 232.61 207.213 233.256 207.858 233.256 208.647 L 233.256 211.608 Z M 153.18 201.57 C 153.18 202.358 152.534 203.004 151.746 203.004 L 148.791 203.004 C 148.002 203.004 147.357 202.358 147.357 201.57 L 147.357 198.608 C 147.357 197.819 148.002 197.174 148.791 197.174 L 151.775 197.174 C 152.563 197.174 153.208 197.819 153.208 198.608 L 153.208 201.57 Z M 218.914 211.608 C 218.914 212.398 218.269 213.043 217.48 213.043 L 214.518 213.043 C 213.73 213.043 213.085 212.398 213.085 211.608 L 213.085 208.647 C 213.085 207.858 213.73 207.213 214.518 207.213 L 217.48 207.213 C 218.269 207.213 218.914 207.858 218.914 208.647 L 218.914 211.608 Z M 211.743 211.608 C 211.743 212.398 211.098 213.043 210.31 213.043 L 207.347 213.043 C 206.559 213.043 205.914 212.398 205.914 211.608 L 205.914 208.647 C 205.914 207.858 206.559 207.213 207.347 207.213 L 210.31 207.213 C 211.098 207.213 211.743 207.858 211.743 208.647 L 211.743 211.608 Z M 204.572 211.608 C 204.572 212.398 203.928 213.043 203.139 213.043 L 200.178 213.043 C 199.388 213.043 198.743 212.398 198.743 211.608 L 198.743 208.647 C 198.743 207.858 199.388 207.213 200.178 207.213 L 203.139 207.213 C 203.928 207.213 204.572 207.858 204.572 208.647 L 204.572 211.608 Z M 197.402 211.608 C 197.402 212.398 196.757 213.043 195.968 213.043 L 193.007 213.043 C 192.217 213.043 191.572 212.398 191.572 211.608 L 191.572 208.647 C 191.572 207.858 192.217 207.213 193.007 207.213 L 195.968 207.213 C 196.757 207.213 197.402 207.858 197.402 208.647 L 197.402 211.608 Z M 190.231 211.608 C 190.231 212.398 189.586 213.043 188.797 213.043 L 185.836 213.043 C 185.047 213.043 184.401 212.398 184.401 211.608 L 184.401 208.647 C 184.401 207.858 185.047 207.213 185.836 207.213 L 188.797 207.213 C 189.586 207.213 190.231 207.858 190.231 208.647 L 190.231 211.608 Z M 183.061 211.608 C 183.061 212.398 182.415 213.043 181.626 213.043 L 178.665 213.043 C 177.876 213.043 177.23 212.398 177.23 211.608 L 177.23 208.647 C 177.23 207.858 177.876 207.213 178.665 207.213 L 181.626 207.213 C 182.415 207.213 183.061 207.858 183.061 208.647 L 183.061 211.608 Z M 175.89 211.608 C 175.89 212.398 175.244 213.043 174.455 213.043 L 171.494 213.043 C 170.705 213.043 170.059 212.398 170.059 211.608 L 170.059 208.647 C 170.059 207.858 170.705 207.213 171.494 207.213 L 174.455 207.213 C 175.244 207.213 175.89 207.858 175.89 208.647 L 175.89 211.608 Z M 168.719 211.608 C 168.719 212.398 168.073 213.043 167.284 213.043 L 164.323 213.043 C 163.534 213.043 162.889 212.398 162.889 211.608 L 162.889 208.647 C 162.889 207.858 163.534 207.213 164.323 207.213 L 167.284 207.213 C 168.073 207.213 168.719 207.858 168.719 208.647 L 168.719 211.608 Z M 161.548 211.608 C 161.548 212.398 160.903 213.043 160.113 213.043 L 157.152 213.043 C 156.363 213.043 155.718 212.398 155.718 211.608 L 155.718 208.647 C 155.718 207.858 156.363 207.213 157.152 207.213 L 160.113 207.213 C 160.903 207.213 161.548 207.858 161.548 208.647 L 161.548 211.608 Z M 154.377 211.608 C 154.377 212.398 153.732 213.043 152.943 213.043 L 149.981 213.043 C 149.193 213.043 148.548 212.398 148.548 211.608 L 148.548 208.647 C 148.548 207.858 149.193 207.213 149.981 207.213 L 152.943 207.213 C 153.732 207.213 154.377 207.858 154.377 208.647 L 154.377 211.608 Z M 147.206 211.608 C 147.206 212.398 146.561 213.043 145.773 213.043 L 142.81 213.043 C 142.022 213.043 141.377 212.398 141.377 211.608 L 141.377 208.647 C 141.377 207.858 142.022 207.213 142.81 207.213 L 145.773 207.213 C 146.561 207.213 147.206 207.858 147.206 208.647 L 147.206 211.608 Z M 283.451 141.334 C 283.451 142.124 282.807 142.769 282.017 142.769 L 279.056 142.769 C 278.267 142.769 277.622 142.124 277.622 141.334 L 277.622 138.373 C 277.622 137.584 278.267 136.939 279.056 136.939 L 282.017 136.939 C 282.807 136.939 283.451 137.584 283.451 138.373 L 283.451 141.334 Z M 276.281 141.334 C 276.281 142.124 275.636 142.769 274.847 142.769 L 271.885 142.769 C 271.096 142.769 270.451 142.124 270.451 141.334 L 270.451 138.373 C 270.451 137.584 271.096 136.939 271.885 136.939 L 274.847 136.939 C 275.636 136.939 276.281 137.584 276.281 138.373 L 276.281 141.334 Z M 269.11 141.334 C 269.11 142.124 268.465 142.769 267.676 142.769 L 264.715 142.769 C 263.925 142.769 263.28 142.124 263.28 141.334 L 263.28 138.373 C 263.28 137.584 263.925 136.939 264.715 136.939 L 267.676 136.939 C 268.465 136.939 269.11 137.584 269.11 138.373 L 269.11 141.334 Z M 261.94 141.334 C 261.94 142.124 261.294 142.769 260.505 142.769 L 257.544 142.769 C 256.754 142.769 256.11 142.124 256.11 141.334 L 256.11 138.373 C 256.11 137.584 256.754 136.939 257.544 136.939 L 260.505 136.939 C 261.294 136.939 261.94 137.584 261.94 138.373 L 261.94 141.334 Z M 254.769 141.334 C 254.769 142.124 254.123 142.769 253.334 142.769 L 250.373 142.769 C 249.584 142.769 248.939 142.124 248.939 141.334 L 248.939 138.373 C 248.939 137.584 249.584 136.939 250.373 136.939 L 253.334 136.939 C 254.123 136.939 254.769 137.584 254.769 138.373 L 254.769 141.334 Z M 247.598 141.334 C 247.598 142.124 246.952 142.769 246.163 142.769 L 243.202 142.769 C 242.413 142.769 241.768 142.124 241.768 141.334 L 241.768 138.373 C 241.768 137.584 242.413 136.939 243.202 136.939 L 246.163 136.939 C 246.952 136.939 247.598 137.584 247.598 138.373 L 247.598 141.334 Z M 111.876 134.207 C 111.876 134.996 111.231 135.641 110.441 135.641 L 107.48 135.641 C 106.691 135.641 106.046 134.996 106.046 134.207 L 106.046 131.246 C 106.046 130.457 106.691 129.811 107.48 129.811 L 110.441 129.811 C 111.231 129.811 111.876 130.457 111.876 131.246 L 111.876 134.207 Z M 233.256 141.334 C 233.256 142.124 232.61 142.769 231.822 142.769 L 228.86 142.769 C 228.072 142.769 227.426 142.124 227.426 141.334 L 227.426 138.373 C 227.426 137.584 228.072 136.939 228.86 136.939 L 231.822 136.939 C 232.61 136.939 233.256 137.584 233.256 138.373 L 233.256 141.334 Z M 226.085 141.334 C 226.085 142.124 225.44 142.769 224.651 142.769 L 221.689 142.769 C 220.901 142.769 220.255 142.124 220.255 141.334 L 220.255 138.373 C 220.255 137.584 220.901 136.939 221.689 136.939 L 224.651 136.939 C 225.44 136.939 226.085 137.584 226.085 138.373 L 226.085 141.334 Z M 218.914 141.334 C 218.914 142.124 218.269 142.769 217.48 142.769 L 214.518 142.769 C 213.73 142.769 213.085 142.124 213.085 141.334 L 213.085 138.373 C 213.085 137.584 213.73 136.939 214.518 136.939 L 217.48 136.939 C 218.269 136.939 218.914 137.584 218.914 138.373 L 218.914 141.334 Z M 211.743 141.334 C 211.743 142.124 211.098 142.769 210.31 142.769 L 207.347 142.769 C 206.559 142.769 205.914 142.124 205.914 141.334 L 205.914 138.373 C 205.914 137.584 206.559 136.939 207.347 136.939 L 210.31 136.939 C 211.098 136.939 211.743 137.584 211.743 138.373 L 211.743 141.334 Z M 204.572 141.334 C 204.572 142.124 203.928 142.769 203.139 142.769 L 200.178 142.769 C 199.388 142.769 198.743 142.124 198.743 141.334 L 198.743 138.373 C 198.743 137.584 199.388 136.939 200.178 136.939 L 203.139 136.939 C 203.928 136.939 204.572 137.584 204.572 138.373 L 204.572 141.334 Z M 197.402 141.334 C 197.402 142.124 196.757 142.769 195.968 142.769 L 193.007 142.769 C 192.217 142.769 191.572 142.124 191.572 141.334 L 191.572 138.373 C 191.572 137.584 192.217 136.939 193.007 136.939 L 195.968 136.939 C 196.757 136.939 197.402 137.584 197.402 138.373 L 197.402 141.334 Z M 190.231 141.334 C 190.231 142.124 189.586 142.769 188.797 142.769 L 185.836 142.769 C 185.047 142.769 184.401 142.124 184.401 141.334 L 184.401 138.373 C 184.401 137.584 185.047 136.939 185.836 136.939 L 188.797 136.939 C 189.586 136.939 190.231 137.584 190.231 138.373 L 190.231 141.334 Z M 183.061 141.334 C 183.061 142.124 182.415 142.769 181.626 142.769 L 178.665 142.769 C 177.876 142.769 177.23 142.124 177.23 141.334 L 177.23 138.373 C 177.23 137.584 177.876 136.939 178.665 136.939 L 181.626 136.939 C 182.415 136.939 183.061 137.584 183.061 138.373 L 183.061 141.334 Z M 175.89 141.334 C 175.89 142.124 175.244 142.769 174.455 142.769 L 171.494 142.769 C 170.705 142.769 170.059 142.124 170.059 141.334 L 170.059 138.373 C 170.059 137.584 170.705 136.939 171.494 136.939 L 174.455 136.939 C 175.244 136.939 175.89 137.584 175.89 138.373 L 175.89 141.334 Z M 168.719 141.334 C 168.719 142.124 168.073 142.769 167.284 142.769 L 164.323 142.769 C 163.534 142.769 162.889 142.124 162.889 141.334 L 162.889 138.373 C 162.889 137.584 163.534 136.939 164.323 136.939 L 167.284 136.939 C 168.073 136.939 168.719 137.584 168.719 138.373 L 168.719 141.334 Z M 161.548 141.334 C 161.548 142.124 160.903 142.769 160.113 142.769 L 157.152 142.769 C 156.363 142.769 155.718 142.124 155.718 141.334 L 155.718 138.373 C 155.718 137.584 156.363 136.939 157.152 136.939 L 160.113 136.939 C 160.903 136.939 161.548 137.584 161.548 138.373 L 161.548 141.334 Z M 154.377 141.334 C 154.377 142.124 153.732 142.769 152.943 142.769 L 149.981 142.769 C 149.193 142.769 148.548 142.124 148.548 141.334 L 148.548 138.373 C 148.548 137.584 149.193 136.939 149.981 136.939 L 152.943 136.939 C 153.732 136.939 154.377 137.584 154.377 138.373 L 154.377 141.334 Z M 147.206 141.334 C 147.206 142.124 146.561 142.769 145.773 142.769 L 142.81 142.769 C 142.022 142.769 141.377 142.124 141.377 141.334 L 141.377 138.373 C 141.377 137.584 142.022 136.939 142.81 136.939 L 145.773 136.939 C 146.561 136.939 147.206 137.584 147.206 138.373 L 147.206 141.334 Z M 283.451 148.505 C 283.451 149.294 282.807 149.94 282.017 149.94 L 279.056 149.94 C 278.267 149.94 277.622 149.294 277.622 148.505 L 277.622 145.544 C 277.622 144.755 278.267 144.11 279.056 144.11 L 282.017 144.11 C 282.807 144.11 283.451 144.755 283.451 145.544 L 283.451 148.505 Z M 276.281 148.505 C 276.281 149.294 275.636 149.94 274.847 149.94 L 271.885 149.94 C 271.096 149.94 270.451 149.294 270.451 148.505 L 270.451 145.544 C 270.451 144.755 271.096 144.11 271.885 144.11 L 274.847 144.11 C 275.636 144.11 276.281 144.755 276.281 145.544 L 276.281 148.505 Z M 269.11 148.505 C 269.11 149.294 268.465 149.94 267.676 149.94 L 264.715 149.94 C 263.925 149.94 263.28 149.294 263.28 148.505 L 263.28 145.544 C 263.28 144.755 263.925 144.11 264.715 144.11 L 267.676 144.11 C 268.465 144.11 269.11 144.755 269.11 145.544 L 269.11 148.505 Z M 261.94 148.505 C 261.94 149.294 261.294 149.94 260.505 149.94 L 257.544 149.94 C 256.754 149.94 256.11 149.294 256.11 148.505 L 256.11 145.544 C 256.11 144.755 256.754 144.11 257.544 144.11 L 260.505 144.11 C 261.294 144.11 261.94 144.755 261.94 145.544 L 261.94 148.505 Z M 254.769 148.505 C 254.769 149.294 254.123 149.94 253.334 149.94 L 250.373 149.94 C 249.584 149.94 248.939 149.294 248.939 148.505 L 248.939 145.544 C 248.939 144.755 249.584 144.11 250.373 144.11 L 253.334 144.11 C 254.123 144.11 254.769 144.755 254.769 145.544 L 254.769 148.505 Z M 247.598 148.505 C 247.598 149.294 246.952 149.94 246.163 149.94 L 243.202 149.94 C 242.413 149.94 241.768 149.294 241.768 148.505 L 241.768 145.544 C 241.768 144.755 242.413 144.11 243.202 144.11 L 246.163 144.11 C 246.952 144.11 247.598 144.755 247.598 145.544 L 247.598 148.505 Z M 240.427 148.505 C 240.427 149.294 239.781 149.94 238.993 149.94 L 236.031 149.94 C 235.243 149.94 234.597 149.294 234.597 148.505 L 234.597 145.544 C 234.597 144.755 235.243 144.11 236.031 144.11 L 238.993 144.11 C 239.781 144.11 240.427 144.755 240.427 145.544 L 240.427 148.505 Z M 233.256 148.505 C 233.256 149.294 232.61 149.94 231.822 149.94 L 228.86 149.94 C 228.072 149.94 227.426 149.294 227.426 148.505 L 227.426 145.544 C 227.426 144.755 228.072 144.11 228.86 144.11 L 231.822 144.11 C 232.61 144.11 233.256 144.755 233.256 145.544 L 233.256 148.505 Z M 226.085 148.505 C 226.085 149.294 225.44 149.94 224.651 149.94 L 221.689 149.94 C 220.901 149.94 220.255 149.294 220.255 148.505 L 220.255 145.544 C 220.255 144.755 220.901 144.11 221.689 144.11 L 224.651 144.11 C 225.44 144.11 226.085 144.755 226.085 145.544 L 226.085 148.505 Z M 218.914 148.505 C 218.914 149.294 218.269 149.94 217.48 149.94 L 214.518 149.94 C 213.73 149.94 213.085 149.294 213.085 148.505 L 213.085 145.544 C 213.085 144.755 213.73 144.11 214.518 144.11 L 217.48 144.11 C 218.269 144.11 218.914 144.755 218.914 145.544 L 218.914 148.505 Z M 211.743 148.505 C 211.743 149.294 211.098 149.94 210.31 149.94 L 207.347 149.94 C 206.559 149.94 205.914 149.294 205.914 148.505 L 205.914 145.544 C 205.914 144.755 206.559 144.11 207.347 144.11 L 210.31 144.11 C 211.098 144.11 211.743 144.755 211.743 145.544 L 211.743 148.505 Z M 204.572 148.505 C 204.572 149.294 203.928 149.94 203.139 149.94 L 200.178 149.94 C 199.388 149.94 198.743 149.294 198.743 148.505 L 198.743 145.544 C 198.743 144.755 199.388 144.11 200.178 144.11 L 203.139 144.11 C 203.928 144.11 204.572 144.755 204.572 145.544 L 204.572 148.505 Z M 197.402 148.505 C 197.402 149.294 196.757 149.94 195.968 149.94 L 193.007 149.94 C 192.217 149.94 191.572 149.294 191.572 148.505 L 191.572 145.544 C 191.572 144.755 192.217 144.11 193.007 144.11 L 195.968 144.11 C 196.757 144.11 197.402 144.755 197.402 145.544 L 197.402 148.505 Z M 190.231 148.505 C 190.231 149.294 189.586 149.94 188.797 149.94 L 185.836 149.94 C 185.047 149.94 184.401 149.294 184.401 148.505 L 184.401 145.544 C 184.401 144.755 185.047 144.11 185.836 144.11 L 188.797 144.11 C 189.586 144.11 190.231 144.755 190.231 145.544 L 190.231 148.505 Z M 183.061 148.505 C 183.061 149.294 182.415 149.94 181.626 149.94 L 178.665 149.94 C 177.876 149.94 177.23 149.294 177.23 148.505 L 177.23 145.544 C 177.23 144.755 177.876 144.11 178.665 144.11 L 181.626 144.11 C 182.415 144.11 183.061 144.755 183.061 145.544 L 183.061 148.505 Z M 175.89 148.505 C 175.89 149.294 175.244 149.94 174.455 149.94 L 171.494 149.94 C 170.705 149.94 170.059 149.294 170.059 148.505 L 170.059 145.544 C 170.059 144.755 170.705 144.11 171.494 144.11 L 174.455 144.11 C 175.244 144.11 175.89 144.755 175.89 145.544 L 175.89 148.505 Z M 168.719 148.505 C 168.719 149.294 168.073 149.94 167.284 149.94 L 164.323 149.94 C 163.534 149.94 162.889 149.294 162.889 148.505 L 162.889 145.544 C 162.889 144.755 163.534 144.11 164.323 144.11 L 167.284 144.11 C 168.073 144.11 168.719 144.755 168.719 145.544 L 168.719 148.505 Z M 161.548 148.505 C 161.548 149.294 160.903 149.94 160.113 149.94 L 157.152 149.94 C 156.363 149.94 155.718 149.294 155.718 148.505 L 155.718 145.544 C 155.718 144.755 156.363 144.11 157.152 144.11 L 160.113 144.11 C 160.903 144.11 161.548 144.755 161.548 145.544 L 161.548 148.505 Z M 135.776 169.997 C 135.776 170.785 135.131 171.43 134.342 171.43 L 131.387 171.43 C 130.599 171.43 129.953 170.785 129.953 169.997 L 129.953 167.035 C 129.953 166.246 130.599 165.601 131.387 165.601 L 134.342 165.601 C 135.131 165.601 135.776 166.246 135.776 167.035 L 135.776 170.025 Z M 147.206 148.505 C 147.206 149.294 146.561 149.94 145.773 149.94 L 142.81 149.94 C 142.022 149.94 141.377 149.294 141.377 148.505 L 141.377 145.544 C 141.377 144.755 142.022 144.11 142.81 144.11 L 145.773 144.11 C 146.561 144.11 147.206 144.755 147.206 145.544 L 147.206 148.505 Z M 304.964 247.391 C 304.964 248.18 304.318 248.825 303.53 248.825 L 300.662 248.825 C 299.872 248.825 299.228 248.18 299.228 247.391 L 299.228 244.594 C 299.228 243.805 299.872 243.161 300.662 243.161 L 303.53 243.161 C 304.318 243.161 304.964 243.805 304.964 244.594 L 304.964 247.391 Z M 297.793 247.391 C 297.793 248.18 297.147 248.825 296.359 248.825 L 293.491 248.825 C 292.702 248.825 292.057 248.18 292.057 247.391 L 292.057 244.594 C 292.057 243.805 292.702 243.161 293.491 243.161 L 296.359 243.161 C 297.147 243.161 297.793 243.805 297.793 244.594 L 297.793 247.391 Z M 290.622 247.391 C 290.622 248.18 289.977 248.825 289.188 248.825 L 286.32 248.825 C 285.532 248.825 284.886 248.18 284.886 247.391 L 284.886 244.594 C 284.886 243.805 285.532 243.161 286.32 243.161 L 289.188 243.161 C 289.977 243.161 290.622 243.805 290.622 244.594 L 290.622 247.391 Z M 57.335 247.391 C 57.335 248.18 56.689 248.825 55.9 248.825 L 53.032 248.825 C 52.244 248.825 51.598 248.18 51.598 247.391 L 51.598 244.594 C 51.598 243.805 52.244 243.161 53.032 243.161 L 55.9 243.161 C 56.689 243.161 57.335 243.805 57.335 244.594 L 57.335 247.391 Z M 276.281 247.391 C 276.281 248.18 275.636 248.825 274.847 248.825 L 271.978 248.825 C 271.19 248.825 270.544 248.18 270.544 247.391 L 270.544 244.594 C 270.544 243.805 271.19 243.161 271.978 243.161 L 274.847 243.161 C 275.636 243.161 276.281 243.805 276.281 244.594 L 276.281 247.391 Z M 269.11 247.391 C 269.11 248.18 268.465 248.825 267.676 248.825 L 264.807 248.825 C 264.019 248.825 263.373 248.18 263.373 247.391 L 263.373 244.594 C 263.373 243.805 264.019 243.161 264.807 243.161 L 267.676 243.161 C 268.465 243.161 269.11 243.805 269.11 244.594 L 269.11 247.391 Z M 261.94 247.391 C 261.94 248.18 261.294 248.825 260.505 248.825 L 257.637 248.825 C 256.848 248.825 256.202 248.18 256.202 247.391 L 256.202 244.594 C 256.202 243.805 256.848 243.161 257.637 243.161 L 260.505 243.161 C 261.294 243.161 261.94 243.805 261.94 244.594 L 261.94 247.391 Z M 254.769 247.391 C 254.769 248.18 254.123 248.825 253.334 248.825 L 250.466 248.825 C 249.677 248.825 249.032 248.18 249.032 247.391 L 249.032 244.594 C 249.032 243.805 249.677 243.161 250.466 243.161 L 253.334 243.161 C 254.123 243.161 254.769 243.805 254.769 244.594 L 254.769 247.391 Z M 247.598 247.391 C 247.598 248.18 246.952 248.825 246.163 248.825 L 243.295 248.825 C 242.506 248.825 241.861 248.18 241.861 247.391 L 241.861 244.594 C 241.861 243.805 242.506 243.161 243.295 243.161 L 246.163 243.161 C 246.952 243.161 247.598 243.805 247.598 244.594 L 247.598 247.391 Z M 240.427 247.391 C 240.427 248.18 239.781 248.825 238.993 248.825 L 236.125 248.825 C 235.335 248.825 234.69 248.18 234.69 247.391 L 234.69 244.594 C 234.69 243.805 235.335 243.161 236.125 243.161 L 238.993 243.161 C 239.781 243.161 240.427 243.805 240.427 244.594 L 240.427 247.391 Z M 233.256 247.391 C 233.256 248.18 232.61 248.825 231.822 248.825 L 228.954 248.825 C 228.165 248.825 227.519 248.18 227.519 247.391 L 227.519 244.594 C 227.519 243.805 228.165 243.161 228.954 243.161 L 231.822 243.161 C 232.61 243.161 233.256 243.805 233.256 244.594 L 233.256 247.391 Z M 226.085 247.391 C 226.085 248.18 225.44 248.825 224.651 248.825 L 221.783 248.825 C 220.994 248.825 220.349 248.18 220.349 247.391 L 220.349 244.594 C 220.349 243.805 220.994 243.161 221.783 243.161 L 224.651 243.161 C 225.44 243.161 226.085 243.805 226.085 244.594 L 226.085 247.391 Z M 218.914 247.391 C 218.914 248.18 218.269 248.825 217.48 248.825 L 214.612 248.825 C 213.823 248.825 213.178 248.18 213.178 247.391 L 213.178 244.594 C 213.178 243.805 213.823 243.161 214.612 243.161 L 217.48 243.161 C 218.269 243.161 218.914 243.805 218.914 244.594 L 218.914 247.391 Z M 211.743 247.391 C 211.743 248.18 211.098 248.825 210.31 248.825 L 207.441 248.825 C 206.652 248.825 206.007 248.18 206.007 247.391 L 206.007 244.594 C 206.007 243.805 206.652 243.161 207.441 243.161 L 210.31 243.161 C 211.098 243.161 211.743 243.805 211.743 244.594 L 211.743 247.391 Z M 204.572 247.391 C 204.572 248.18 203.928 248.825 203.139 248.825 L 200.27 248.825 C 199.482 248.825 198.836 248.18 198.836 247.391 L 198.836 244.594 C 198.836 243.805 199.482 243.161 200.27 243.161 L 203.139 243.161 C 203.928 243.161 204.572 243.805 204.572 244.594 L 204.572 247.391 Z M 197.402 247.391 C 197.402 248.18 196.757 248.825 195.968 248.825 L 193.099 248.825 C 192.311 248.825 191.665 248.18 191.665 247.391 L 191.665 244.594 C 191.665 243.805 192.311 243.161 193.099 243.161 L 195.968 243.161 C 196.757 243.161 197.402 243.805 197.402 244.594 L 197.402 247.391 Z M 102.267 176.4 C 102.267 177.189 101.622 177.834 100.833 177.834 L 97.964 177.834 C 97.176 177.834 96.53 177.189 96.53 176.4 L 96.53 173.603 C 96.53 172.814 97.176 172.17 97.964 172.17 L 100.833 172.17 C 101.622 172.17 102.267 172.814 102.267 173.603 L 102.267 176.4 Z M 183.061 247.391 C 183.061 248.18 182.415 248.825 181.626 248.825 L 178.757 248.825 C 177.969 248.825 177.324 248.18 177.324 247.391 L 177.324 244.594 C 177.324 243.805 177.969 243.161 178.757 243.161 L 181.626 243.161 C 182.415 243.161 183.061 243.805 183.061 244.594 L 183.061 247.391 Z M 175.89 247.391 C 175.89 248.18 175.244 248.825 174.455 248.825 L 171.588 248.825 C 170.798 248.825 170.153 248.18 170.153 247.391 L 170.153 244.594 C 170.153 243.805 170.798 243.161 171.588 243.161 L 174.455 243.161 C 175.244 243.161 175.89 243.805 175.89 244.594 L 175.89 247.391 Z M 168.719 247.391 C 168.719 248.18 168.073 248.825 167.284 248.825 L 164.417 248.825 C 163.628 248.825 162.982 248.18 162.982 247.391 L 162.982 244.594 C 162.982 243.805 163.628 243.161 164.417 243.161 L 167.284 243.161 C 168.073 243.161 168.719 243.805 168.719 244.594 L 168.719 247.391 Z M 161.548 247.391 C 161.548 248.18 160.903 248.825 160.113 248.825 L 157.246 248.825 C 156.457 248.825 155.811 248.18 155.811 247.391 L 155.811 244.594 C 155.811 243.805 156.457 243.161 157.246 243.161 L 160.113 243.161 C 160.903 243.161 161.548 243.805 161.548 244.594 L 161.548 247.391 Z M 154.377 247.391 C 154.377 248.18 153.732 248.825 152.943 248.825 L 150.075 248.825 C 149.286 248.825 148.64 248.18 148.64 247.391 L 148.64 244.594 C 148.64 243.805 149.286 243.161 150.075 243.161 L 152.943 243.161 C 153.732 243.161 154.377 243.805 154.377 244.594 L 154.377 247.391 Z M 96.53 254.561 C 96.53 255.351 95.885 255.996 95.096 255.996 L 92.228 255.996 C 91.439 255.996 90.793 255.351 90.793 254.561 L 90.793 251.765 C 90.793 250.976 91.439 250.331 92.228 250.331 L 95.096 250.331 C 95.885 250.331 96.53 250.976 96.53 251.765 L 96.53 254.561 Z M 140.035 247.391 C 140.035 248.18 139.39 248.825 138.602 248.825 L 135.733 248.825 C 134.944 248.825 134.299 248.18 134.299 247.391 L 134.299 244.594 C 134.299 243.805 134.944 243.161 135.733 243.161 L 138.602 243.161 C 139.39 243.161 140.035 243.805 140.035 244.594 L 140.035 247.391 Z M 132.865 247.391 C 132.865 248.18 132.219 248.825 131.431 248.825 L 128.562 248.825 C 127.773 248.825 127.128 248.18 127.128 247.391 L 127.128 244.594 C 127.128 243.805 127.773 243.161 128.562 243.161 L 131.431 243.161 C 132.219 243.161 132.865 243.805 132.865 244.594 L 132.865 247.391 Z M 304.964 254.561 C 304.964 255.351 304.318 255.996 303.53 255.996 L 300.662 255.996 C 299.872 255.996 299.228 255.351 299.228 254.561 L 299.228 251.765 C 299.228 250.976 299.872 250.331 300.662 250.331 L 303.53 250.331 C 304.318 250.331 304.964 250.976 304.964 251.765 L 304.964 254.561 Z M 297.793 254.561 C 297.793 255.351 297.147 255.996 296.359 255.996 L 293.491 255.996 C 292.702 255.996 292.057 255.351 292.057 254.561 L 292.057 251.765 C 292.057 250.976 292.702 250.331 293.491 250.331 L 296.359 250.331 C 297.147 250.331 297.793 250.976 297.793 251.765 L 297.793 254.561 Z M 290.622 254.561 C 290.622 255.351 289.977 255.996 289.188 255.996 L 286.32 255.996 C 285.532 255.996 284.886 255.351 284.886 254.561 L 284.886 251.765 C 284.886 250.976 285.532 250.331 286.32 250.331 L 289.188 250.331 C 289.977 250.331 290.622 250.976 290.622 251.765 L 290.622 254.561 Z M 283.451 254.561 C 283.451 255.351 282.807 255.996 282.017 255.996 L 279.149 255.996 C 278.361 255.996 277.715 255.351 277.715 254.561 L 277.715 251.765 C 277.715 250.976 278.361 250.331 279.149 250.331 L 282.017 250.331 C 282.807 250.331 283.451 250.976 283.451 251.765 L 283.451 254.561 Z M 276.281 254.561 C 276.281 255.351 275.636 255.996 274.847 255.996 L 271.978 255.996 C 271.19 255.996 270.544 255.351 270.544 254.561 L 270.544 251.765 C 270.544 250.976 271.19 250.331 271.978 250.331 L 274.847 250.331 C 275.636 250.331 276.281 250.976 276.281 251.765 L 276.281 254.561 Z M 269.11 254.561 C 269.11 255.351 268.465 255.996 267.676 255.996 L 264.807 255.996 C 264.019 255.996 263.373 255.351 263.373 254.561 L 263.373 251.765 C 263.373 250.976 264.019 250.331 264.807 250.331 L 267.676 250.331 C 268.465 250.331 269.11 250.976 269.11 251.765 L 269.11 254.561 Z M 261.94 254.561 C 261.94 255.351 261.294 255.996 260.505 255.996 L 257.637 255.996 C 256.848 255.996 256.202 255.351 256.202 254.561 L 256.202 251.765 C 256.202 250.976 256.848 250.331 257.637 250.331 L 260.505 250.331 C 261.294 250.331 261.94 250.976 261.94 251.765 L 261.94 254.561 Z M 254.769 254.561 C 254.769 255.351 254.123 255.996 253.334 255.996 L 250.466 255.996 C 249.677 255.996 249.032 255.351 249.032 254.561 L 249.032 251.765 C 249.032 250.976 249.677 250.331 250.466 250.331 L 253.334 250.331 C 254.123 250.331 254.769 250.976 254.769 251.765 L 254.769 254.561 Z M 247.598 254.561 C 247.598 255.351 246.952 255.996 246.163 255.996 L 243.295 255.996 C 242.506 255.996 241.861 255.351 241.861 254.561 L 241.861 251.765 C 241.861 250.976 242.506 250.331 243.295 250.331 L 246.163 250.331 C 246.952 250.331 247.598 250.976 247.598 251.765 L 247.598 254.561 Z M 240.427 254.561 C 240.427 255.351 239.781 255.996 238.993 255.996 L 236.125 255.996 C 235.335 255.996 234.69 255.351 234.69 254.561 L 234.69 251.765 C 234.69 250.976 235.335 250.331 236.125 250.331 L 238.993 250.331 C 239.781 250.331 240.427 250.976 240.427 251.765 L 240.427 254.561 Z M 233.256 254.561 C 233.256 255.351 232.61 255.996 231.822 255.996 L 228.954 255.996 C 228.165 255.996 227.519 255.351 227.519 254.561 L 227.519 251.765 C 227.519 250.976 228.165 250.331 228.954 250.331 L 231.822 250.331 C 232.61 250.331 233.256 250.976 233.256 251.765 L 233.256 254.561 Z M 226.085 254.561 C 226.085 255.351 225.44 255.996 224.651 255.996 L 221.783 255.996 C 220.994 255.996 220.349 255.351 220.349 254.561 L 220.349 251.765 C 220.349 250.976 220.994 250.331 221.783 250.331 L 224.651 250.331 C 225.44 250.331 226.085 250.976 226.085 251.765 L 226.085 254.561 Z M 218.914 254.561 C 218.914 255.351 218.269 255.996 217.48 255.996 L 214.612 255.996 C 213.823 255.996 213.178 255.351 213.178 254.561 L 213.178 251.765 C 213.178 250.976 213.823 250.331 214.612 250.331 L 217.48 250.331 C 218.269 250.331 218.914 250.976 218.914 251.765 L 218.914 254.561 Z M 211.743 254.561 C 211.743 255.351 211.098 255.996 210.31 255.996 L 207.441 255.996 C 206.652 255.996 206.007 255.351 206.007 254.561 L 206.007 251.765 C 206.007 250.976 206.652 250.331 207.441 250.331 L 210.31 250.331 C 211.098 250.331 211.743 250.976 211.743 251.765 L 211.743 254.561 Z M 204.572 254.561 C 204.572 255.351 203.928 255.996 203.139 255.996 L 200.27 255.996 C 199.482 255.996 198.836 255.351 198.836 254.561 L 198.836 251.765 C 198.836 250.976 199.482 250.331 200.27 250.331 L 203.139 250.331 C 203.928 250.331 204.572 250.976 204.572 251.765 L 204.572 254.561 Z M 197.402 254.561 C 197.402 255.351 196.757 255.996 195.968 255.996 L 193.099 255.996 C 192.311 255.996 191.665 255.351 191.665 254.561 L 191.665 251.765 C 191.665 250.976 192.311 250.331 193.099 250.331 L 195.968 250.331 C 196.757 250.331 197.402 250.976 197.402 251.765 L 197.402 254.561 Z M 190.231 254.561 C 190.231 255.351 189.586 255.996 188.797 255.996 L 185.928 255.996 C 185.14 255.996 184.495 255.351 184.495 254.561 L 184.495 251.765 C 184.495 250.976 185.14 250.331 185.928 250.331 L 188.797 250.331 C 189.586 250.331 190.231 250.976 190.231 251.765 L 190.231 254.561 Z M 132.176 155.626 C 132.176 156.415 131.531 157.06 130.743 157.06 L 127.874 157.06 C 127.085 157.06 126.439 156.415 126.439 155.626 L 126.439 152.815 C 126.439 152.027 127.085 151.381 127.874 151.381 L 130.743 151.381 C 131.531 151.381 132.176 152.027 132.176 152.815 L 132.176 155.612 Z M 175.89 254.569 C 175.89 255.358 175.244 256.003 174.455 256.003 L 171.588 256.003 C 170.798 256.003 170.153 255.358 170.153 254.569 L 170.153 251.773 C 170.153 250.983 170.798 250.338 171.588 250.338 L 174.455 250.338 C 175.244 250.338 175.89 250.983 175.89 251.773 L 175.89 254.569 Z M 168.719 254.569 C 168.719 255.358 168.073 256.003 167.284 256.003 L 164.417 256.003 C 163.628 256.003 162.982 255.358 162.982 254.569 L 162.982 251.773 C 162.982 250.983 163.628 250.338 164.417 250.338 L 167.284 250.338 C 168.073 250.338 168.719 250.983 168.719 251.773 L 168.719 254.569 Z M 161.548 254.569 C 161.548 255.358 160.903 256.003 160.113 256.003 L 157.246 256.003 C 156.457 256.003 155.811 255.358 155.811 254.569 L 155.811 251.773 C 155.811 250.983 156.457 250.338 157.246 250.338 L 160.113 250.338 C 160.903 250.338 161.548 250.983 161.548 251.773 L 161.548 254.569 Z M 154.377 254.569 C 154.377 255.358 153.732 256.003 152.943 256.003 L 150.075 256.003 C 149.286 256.003 148.64 255.358 148.64 254.569 L 148.64 251.773 C 148.64 250.983 149.286 250.338 150.075 250.338 L 152.943 250.338 C 153.732 250.338 154.377 250.983 154.377 251.773 L 154.377 254.569 Z M 147.206 254.569 C 147.206 255.358 146.561 256.003 145.773 256.003 L 142.904 256.003 C 142.115 256.003 141.469 255.358 141.469 254.569 L 141.469 251.773 C 141.469 250.983 142.115 250.338 142.904 250.338 L 145.773 250.338 C 146.561 250.338 147.206 250.983 147.206 251.773 L 147.206 254.569 Z M 140.035 254.569 C 140.035 255.358 139.39 256.003 138.602 256.003 L 135.733 256.003 C 134.944 256.003 134.299 255.358 134.299 254.569 L 134.299 251.773 C 134.299 250.983 134.944 250.338 135.733 250.338 L 138.602 250.338 C 139.39 250.338 140.035 250.983 140.035 251.773 L 140.035 254.569 Z M 132.865 254.569 C 132.865 255.358 132.219 256.003 131.431 256.003 L 128.562 256.003 C 127.773 256.003 127.128 255.358 127.128 254.569 L 127.128 251.773 C 127.128 250.983 127.773 250.338 128.562 250.338 L 131.431 250.338 C 132.219 250.338 132.865 250.983 132.865 251.773 L 132.865 254.569 Z M 161.548 268.265 C 161.548 269.054 160.903 269.699 160.113 269.699 L 157.152 269.699 C 156.363 269.699 155.718 269.054 155.718 268.265 L 155.718 265.397 C 155.718 264.608 156.363 263.963 157.152 263.963 L 160.113 263.963 C 160.903 263.963 161.548 264.608 161.548 265.397 L 161.548 268.265 Z M 154.377 268.265 C 154.377 269.054 153.732 269.699 152.943 269.699 L 149.981 269.699 C 149.193 269.699 148.548 269.054 148.548 268.265 L 148.548 265.397 C 148.548 264.608 149.193 263.963 149.981 263.963 L 152.943 263.963 C 153.732 263.963 154.377 264.608 154.377 265.397 L 154.377 268.265 Z M 147.206 268.265 C 147.206 269.054 146.561 269.699 145.773 269.699 L 142.81 269.699 C 142.022 269.699 141.377 269.054 141.377 268.265 L 141.377 265.397 C 141.377 264.608 142.022 263.963 142.81 263.963 L 145.773 263.963 C 146.561 263.963 147.206 264.608 147.206 265.397 L 147.206 268.265 Z M 287.037 268.265 C 287.037 269.054 286.392 269.699 285.603 269.699 L 282.642 269.699 C 281.853 269.699 281.207 269.054 281.207 268.265 L 281.207 265.397 C 281.207 264.608 281.853 263.963 282.642 263.963 L 285.603 263.963 C 286.392 263.963 287.037 264.608 287.037 265.397 L 287.037 268.265 Z M 279.866 268.265 C 279.866 269.054 279.221 269.699 278.432 269.699 L 275.471 269.699 C 274.682 269.699 274.036 269.054 274.036 268.265 L 274.036 265.397 C 274.036 264.608 274.682 263.963 275.471 263.963 L 278.432 263.963 C 279.221 263.963 279.866 264.608 279.866 265.397 L 279.866 268.265 Z M 272.696 268.265 C 272.696 269.054 272.05 269.699 271.261 269.699 L 268.3 269.699 C 267.511 269.699 266.865 269.054 266.865 268.265 L 266.865 265.397 C 266.865 264.608 267.511 263.963 268.3 263.963 L 271.261 263.963 C 272.05 263.963 272.696 264.608 272.696 265.397 L 272.696 268.265 Z M 208.158 268.265 C 208.158 269.054 207.513 269.699 206.724 269.699 L 203.798 269.699 C 203.01 269.699 202.364 269.054 202.364 268.265 L 202.364 265.397 C 202.364 264.608 203.01 263.963 203.798 263.963 L 206.724 263.963 C 207.513 263.963 208.158 264.608 208.158 265.397 L 208.158 268.265 Z M 200.987 268.265 C 200.987 269.054 200.342 269.699 199.553 269.699 L 196.627 269.699 C 195.839 269.699 195.193 269.054 195.193 268.265 L 195.193 265.397 C 195.193 264.608 195.839 263.963 196.627 263.963 L 199.553 263.963 C 200.342 263.963 200.987 264.608 200.987 265.397 L 200.987 268.265 Z M 215.271 275.436 C 215.271 276.225 214.627 276.87 213.838 276.87 L 210.898 276.87 C 210.109 276.87 209.463 276.225 209.463 275.436 L 209.463 272.567 C 209.463 271.779 210.109 271.134 210.898 271.134 L 213.838 271.134 C 214.627 271.134 215.271 271.779 215.271 272.567 L 215.271 275.436 Z M 208.1 275.436 C 208.1 276.225 207.456 276.87 206.667 276.87 L 203.727 276.87 C 202.938 276.87 202.292 276.225 202.292 275.436 L 202.292 272.567 C 202.292 271.779 202.938 271.134 203.727 271.134 L 206.667 271.134 C 207.456 271.134 208.1 271.779 208.1 272.567 L 208.1 275.436 Z M 244.012 268.265 C 244.012 269.054 243.367 269.699 242.579 269.699 L 239.653 269.699 C 238.863 269.699 238.218 269.054 238.218 268.265 L 238.218 265.397 C 238.218 264.608 238.863 263.963 239.653 263.963 L 242.579 263.963 C 243.367 263.963 244.012 264.608 244.012 265.397 L 244.012 268.265 Z M 236.841 268.265 C 236.841 269.054 236.196 269.699 235.408 269.699 L 232.482 269.699 C 231.693 269.699 231.047 269.054 231.047 268.265 L 231.047 265.397 C 231.047 264.608 231.693 263.963 232.482 263.963 L 235.408 263.963 C 236.196 263.963 236.841 264.608 236.841 265.397 L 236.841 268.265 Z M 251.126 275.436 C 251.126 276.225 250.48 276.87 249.691 276.87 L 246.751 276.87 C 245.963 276.87 245.317 276.225 245.317 275.436 L 245.317 272.567 C 245.317 271.779 245.963 271.134 246.751 271.134 L 249.691 271.134 C 250.48 271.134 251.126 271.779 251.126 272.567 L 251.126 275.436 Z M 243.955 275.436 C 243.955 276.225 243.309 276.87 242.521 276.87 L 239.58 276.87 C 238.792 276.87 238.147 276.225 238.147 275.436 L 238.147 272.567 C 238.147 271.779 238.792 271.134 239.58 271.134 L 242.521 271.134 C 243.309 271.134 243.955 271.779 243.955 272.567 L 243.955 275.436 Z" stroke-linecap="round"/>
      </g>
      <g transform="matrix(1 0 0 1 60.4575 89.9385)">
        <path style="stroke: none; stroke-width: 1; stroke-dasharray: none; stroke-linecap: butt; stroke-dashoffset: 0; stroke-linejoin: round; stroke-miterlimit: 1.4142; is-custom-font: none; font-file-url: none; fill: rgb(20,16,6); fill-rule: evenodd; opacity: 1;" transform=" translate(-248.4575, -277.9385)" d="M 215.271 275.429 C 215.271 276.218 214.627 276.863 213.838 276.863 L 210.898 276.863 C 210.109 276.863 209.463 276.218 209.463 275.429 L 209.463 272.56 C 209.463 271.772 210.109 271.126 210.898 271.126 L 213.838 271.126 C 214.627 271.126 215.271 271.772 215.271 272.56 L 215.271 275.429 Z M 208.1 275.429 C 208.1 276.218 207.456 276.863 206.667 276.863 L 203.727 276.863 C 202.938 276.863 202.292 276.218 202.292 275.429 L 202.292 272.56 C 202.292 271.772 202.938 271.126 203.727 271.126 L 206.667 271.126 C 207.456 271.126 208.1 271.772 208.1 272.56 L 208.1 275.429 Z M 287.517 276.145 C 287.517 276.935 286.872 277.58 286.084 277.58 L 283.144 277.58 C 282.355 277.58 281.709 276.935 281.709 276.145 L 281.709 273.278 C 281.709 272.489 282.355 271.843 283.144 271.843 L 286.084 271.843 C 286.872 271.843 287.517 272.489 287.517 273.278 L 287.517 276.145 Z M 280.347 276.145 C 280.347 276.935 279.701 277.58 278.913 277.58 L 275.973 277.58 C 275.184 277.58 274.538 276.935 274.538 276.145 L 274.538 273.278 C 274.538 272.489 275.184 271.843 275.973 271.843 L 278.913 271.843 C 279.701 271.843 280.347 272.489 280.347 273.278 L 280.347 276.145 Z M 294.617 283.316 C 294.617 284.105 293.971 284.751 293.182 284.751 L 290.264 284.751 C 289.475 284.751 288.83 284.105 288.83 283.316 L 288.83 280.449 C 288.83 279.66 289.475 279.014 290.264 279.014 L 293.19 279.014 C 293.979 279.014 294.623 279.66 294.623 280.449 L 294.623 283.316 Z M 287.446 283.316 C 287.446 284.105 286.801 284.751 286.011 284.751 L 283.093 284.751 C 282.305 284.751 281.659 284.105 281.659 283.316 L 281.659 280.449 C 281.659 279.66 282.305 279.014 283.093 279.014 L 286.019 279.014 C 286.808 279.014 287.453 279.66 287.453 280.449 L 287.453 283.316 Z" stroke-linecap="round"/>
      </g>
      <g transform="matrix(1 0 0 1 -2.2435 8.5245)">
        <path style="stroke: none; stroke-width: 1; stroke-dasharray: none; stroke-linecap: butt; stroke-dashoffset: 0; stroke-linejoin: round; stroke-miterlimit: 1.4142; is-custom-font: none; font-file-url: none; fill: rgb(20,16,6); fill-rule: evenodd; opacity: 1;" transform=" translate(-185.7565, -196.5245)" d="M 294.623 283.316 C 294.623 284.105 293.979 284.751 293.19 284.751 L 290.264 284.751 C 289.475 284.751 288.83 284.105 288.83 283.316 L 288.83 280.449 C 288.83 279.66 289.475 279.014 290.264 279.014 L 293.19 279.014 C 293.979 279.014 294.623 279.66 294.623 280.449 L 294.623 283.316 Z M 287.453 283.316 C 287.453 284.105 286.808 284.751 286.019 284.751 L 283.093 284.751 C 282.305 284.751 281.659 284.105 281.659 283.316 L 281.659 280.449 C 281.659 279.66 282.305 279.014 283.093 279.014 L 286.019 279.014 C 286.808 279.014 287.453 279.66 287.453 280.449 L 287.453 283.316 Z M 136.479 282.599 C 136.479 283.389 135.833 284.034 135.045 284.034 L 132.119 284.034 C 131.33 284.034 130.685 283.389 130.685 282.599 L 130.685 279.731 C 130.685 278.943 131.33 278.297 132.119 278.297 L 135.045 278.297 C 135.833 278.297 136.479 278.943 136.479 279.731 L 136.479 282.599 Z M 129.308 282.599 C 129.308 283.389 128.662 284.034 127.874 284.034 L 124.948 284.034 C 124.159 284.034 123.514 283.389 123.514 282.599 L 123.514 279.731 C 123.514 278.943 124.159 278.297 124.948 278.297 L 127.874 278.297 C 128.662 278.297 129.308 278.943 129.308 279.731 L 129.308 282.599 Z M 154.377 119.823 C 154.377 120.611 153.732 121.256 152.943 121.256 L 149.981 121.256 C 149.193 121.256 148.548 120.611 148.548 119.823 L 148.548 116.954 C 148.548 116.165 149.193 115.519 149.981 115.519 L 152.943 115.519 C 153.732 115.519 154.377 116.165 154.377 116.954 L 154.377 119.823 Z M 147.206 119.823 C 147.206 120.611 146.561 121.256 145.773 121.256 L 142.81 121.256 C 142.022 121.256 141.377 120.611 141.377 119.823 L 141.377 116.954 C 141.377 116.165 142.022 115.519 142.81 115.519 L 145.773 115.519 C 146.561 115.519 147.206 116.165 147.206 116.954 L 147.206 119.823 Z M 154.377 126.994 C 154.377 127.782 153.732 128.427 152.943 128.427 L 149.981 128.427 C 149.193 128.427 148.548 127.782 148.548 126.994 L 148.548 124.125 C 148.548 123.336 149.193 122.69 149.981 122.69 L 152.943 122.69 C 153.732 122.69 154.377 123.336 154.377 124.125 L 154.377 126.994 Z M 82.712 112.602 C 82.712 113.39 82.066 114.036 81.278 114.036 L 78.323 114.036 C 77.535 114.036 76.89 113.39 76.89 112.602 L 76.89 109.733 C 76.89 108.944 77.535 108.298 78.323 108.298 L 81.278 108.298 C 82.066 108.298 82.712 108.944 82.712 109.733 L 82.712 112.602 Z M 154.377 134.113 C 154.377 134.903 153.732 135.548 152.943 135.548 L 149.981 135.548 C 149.193 135.548 148.548 134.903 148.548 134.113 L 148.548 131.246 C 148.548 130.457 149.193 129.811 149.981 129.811 L 152.943 129.811 C 153.732 129.811 154.377 130.457 154.377 131.246 L 154.377 134.113 Z M 88.549 141.284 C 88.549 142.074 87.903 142.719 87.115 142.719 L 84.147 142.719 C 83.358 142.719 82.712 142.074 82.712 141.284 L 82.712 138.416 C 82.712 137.628 83.358 136.982 84.147 136.982 L 87.108 136.982 C 87.897 136.982 88.542 137.628 88.542 138.416 L 88.542 141.284 Z M 135.776 148.455 C 135.776 149.244 135.131 149.889 134.342 149.889 L 131.387 149.889 C 130.599 149.889 129.953 149.244 129.953 148.455 L 129.953 145.587 C 129.953 144.798 130.599 144.153 131.387 144.153 L 134.342 144.153 C 135.131 144.153 135.776 144.798 135.776 145.587 L 135.776 148.455 Z M 147.206 155.626 C 147.206 156.415 146.561 157.06 145.773 157.06 L 142.81 157.06 C 142.022 157.06 141.377 156.415 141.377 155.626 L 141.377 152.758 C 141.377 151.969 142.022 151.324 142.81 151.324 L 145.773 151.324 C 146.561 151.324 147.206 151.969 147.206 152.758 L 147.206 155.626 Z M 154.377 162.797 C 154.377 163.586 153.732 164.231 152.943 164.231 L 149.981 164.231 C 149.193 164.231 148.548 163.586 148.548 162.797 L 148.548 159.928 C 148.548 159.14 149.193 158.495 149.981 158.495 L 152.943 158.495 C 153.732 158.495 154.377 159.14 154.377 159.928 L 154.377 162.797 Z M 147.206 162.797 C 147.206 163.586 146.561 164.231 145.773 164.231 L 142.81 164.231 C 142.022 164.231 141.377 163.586 141.377 162.797 L 141.377 159.928 C 141.377 159.14 142.022 158.495 142.81 158.495 L 145.773 158.495 C 146.561 158.495 147.206 159.14 147.206 159.928 L 147.206 162.797 Z M 154.377 169.924 C 154.377 170.713 153.732 171.359 152.943 171.359 L 149.981 171.359 C 149.193 171.359 148.548 170.713 148.548 169.924 L 148.548 167.057 C 148.548 166.268 149.193 165.622 149.981 165.622 L 152.943 165.622 C 153.732 165.622 154.377 166.268 154.377 167.057 L 154.377 169.924 Z M 147.206 169.924 C 147.206 170.713 146.561 171.359 145.773 171.359 L 142.81 171.359 C 142.022 171.359 141.377 170.713 141.377 169.924 L 141.377 167.057 C 141.377 166.268 142.022 165.622 142.81 165.622 L 145.773 165.622 C 146.561 165.622 147.206 166.268 147.206 167.057 L 147.206 169.924 Z M 218.914 119.844 C 218.914 120.632 218.269 121.278 217.48 121.278 L 214.518 121.278 C 213.73 121.278 213.085 120.632 213.085 119.844 L 213.085 116.975 C 213.085 116.186 213.73 115.542 214.518 115.542 L 217.48 115.542 C 218.269 115.542 218.914 116.186 218.914 116.975 L 218.914 119.844 Z M 211.743 119.844 C 211.743 120.632 211.098 121.278 210.31 121.278 L 207.347 121.278 C 206.559 121.278 205.914 120.632 205.914 119.844 L 205.914 116.975 C 205.914 116.186 206.559 115.542 207.347 115.542 L 210.31 115.542 C 211.098 115.542 211.743 116.186 211.743 116.975 L 211.743 119.844 Z M 218.914 127.015 C 218.914 127.803 218.269 128.449 217.48 128.449 L 214.518 128.449 C 213.73 128.449 213.085 127.803 213.085 127.015 L 213.085 124.146 C 213.085 123.357 213.73 122.712 214.518 122.712 L 217.48 122.712 C 218.269 122.712 218.914 123.357 218.914 124.146 L 218.914 127.015 Z M 211.743 127.015 C 211.743 127.803 211.098 128.449 210.31 128.449 L 207.347 128.449 C 206.559 128.449 205.914 127.803 205.914 127.015 L 205.914 124.146 C 205.914 123.357 206.559 122.712 207.347 122.712 L 210.31 122.712 C 211.098 122.712 211.743 123.357 211.743 124.146 L 211.743 127.015 Z M 218.914 134.136 C 218.914 134.924 218.269 135.57 217.48 135.57 L 214.518 135.57 C 213.73 135.57 213.085 134.924 213.085 134.136 L 213.085 131.267 C 213.085 130.478 213.73 129.832 214.518 129.832 L 217.48 129.832 C 218.269 129.832 218.914 130.478 218.914 131.267 L 218.914 134.136 Z M 211.743 134.136 C 211.743 134.924 211.098 135.57 210.31 135.57 L 207.347 135.57 C 206.559 135.57 205.914 134.924 205.914 134.136 L 205.914 131.267 C 205.914 130.478 206.559 129.832 207.347 129.832 L 210.31 129.832 C 211.098 129.832 211.743 130.478 211.743 131.267 L 211.743 134.136 Z M 218.914 155.626 C 218.914 156.415 218.269 157.06 217.48 157.06 L 214.518 157.06 C 213.73 157.06 213.085 156.415 213.085 155.626 L 213.085 152.758 C 213.085 151.969 213.73 151.324 214.518 151.324 L 217.48 151.324 C 218.269 151.324 218.914 151.969 218.914 152.758 L 218.914 155.626 Z M 211.743 155.626 C 211.743 156.415 211.098 157.06 210.31 157.06 L 207.347 157.06 C 206.559 157.06 205.914 156.415 205.914 155.626 L 205.914 152.758 C 205.914 151.969 206.559 151.324 207.347 151.324 L 210.31 151.324 C 211.098 151.324 211.743 151.969 211.743 152.758 L 211.743 155.626 Z M 218.914 162.797 C 218.914 163.586 218.269 164.231 217.48 164.231 L 214.518 164.231 C 213.73 164.231 213.085 163.586 213.085 162.797 L 213.085 159.928 C 213.085 159.14 213.73 158.495 214.518 158.495 L 217.48 158.495 C 218.269 158.495 218.914 159.14 218.914 159.928 L 218.914 162.797 Z M 211.743 162.797 C 211.743 163.586 211.098 164.231 210.31 164.231 L 207.347 164.231 C 206.559 164.231 205.914 163.586 205.914 162.797 L 205.914 159.928 C 205.914 159.14 206.559 158.495 207.347 158.495 L 210.31 158.495 C 211.098 158.495 211.743 159.14 211.743 159.928 L 211.743 162.797 Z M 218.914 169.924 C 218.914 170.713 218.269 171.359 217.48 171.359 L 214.518 171.359 C 213.73 171.359 213.085 170.713 213.085 169.924 L 213.085 167.057 C 213.085 166.268 213.73 165.622 214.518 165.622 L 217.48 165.622 C 218.269 165.622 218.914 166.268 218.914 167.057 L 218.914 169.924 Z M 211.743 169.924 C 211.743 170.713 211.098 171.359 210.31 171.359 L 207.347 171.359 C 206.559 171.359 205.914 170.713 205.914 169.924 L 205.914 167.057 C 205.914 166.268 206.559 165.622 207.347 165.622 L 210.31 165.622 C 211.098 165.622 211.743 166.268 211.743 167.057 L 211.743 169.924 Z M 218.914 190.763 C 218.914 191.552 218.269 192.197 217.48 192.197 L 214.518 192.197 C 213.73 192.197 213.085 191.552 213.085 190.763 L 213.085 187.895 C 213.085 187.106 213.73 186.46 214.518 186.46 L 217.48 186.46 C 218.269 186.46 218.914 187.106 218.914 187.895 L 218.914 190.763 Z M 211.743 190.763 C 211.743 191.552 211.098 192.197 210.31 192.197 L 207.347 192.197 C 206.559 192.197 205.914 191.552 205.914 190.763 L 205.914 187.895 C 205.914 187.106 206.559 186.46 207.347 186.46 L 210.31 186.46 C 211.098 186.46 211.743 187.106 211.743 187.895 L 211.743 190.763 Z M 218.914 197.934 C 218.914 198.723 218.269 199.368 217.48 199.368 L 214.518 199.368 C 213.73 199.368 213.085 198.723 213.085 197.934 L 213.085 195.066 C 213.085 194.277 213.73 193.631 214.518 193.631 L 217.48 193.631 C 218.269 193.631 218.914 194.277 218.914 195.066 L 218.914 197.934 Z M 211.743 197.934 C 211.743 198.723 211.098 199.368 210.31 199.368 L 207.347 199.368 C 206.559 199.368 205.914 198.723 205.914 197.934 L 205.914 195.066 C 205.914 194.277 206.559 193.631 207.347 193.631 L 210.31 193.631 C 211.098 193.631 211.743 194.277 211.743 195.066 L 211.743 197.934 Z M 218.914 205.062 C 218.914 205.85 218.269 206.496 217.48 206.496 L 214.518 206.496 C 213.73 206.496 213.085 205.85 213.085 205.062 L 213.085 202.193 C 213.085 201.404 213.73 200.76 214.518 200.76 L 217.48 200.76 C 218.269 200.76 218.914 201.404 218.914 202.193 L 218.914 205.062 Z M 211.743 205.062 C 211.743 205.85 211.098 206.496 210.31 206.496 L 207.347 206.496 C 206.559 206.496 205.914 205.85 205.914 205.062 L 205.914 202.193 C 205.914 201.404 206.559 200.76 207.347 200.76 L 210.31 200.76 C 211.098 200.76 211.743 201.404 211.743 202.193 L 211.743 205.062 Z M 283.423 119.873 C 283.423 120.661 282.778 121.306 281.989 121.306 L 279.028 121.306 C 278.238 121.306 277.593 120.661 277.593 119.873 L 277.593 117.004 C 277.593 116.215 278.238 115.57 279.028 115.57 L 281.989 115.57 C 282.778 115.57 283.423 116.215 283.423 117.004 L 283.423 119.873 Z M 276.253 119.873 C 276.253 120.661 275.607 121.306 274.818 121.306 L 271.857 121.306 C 271.068 121.306 270.422 120.661 270.422 119.873 L 270.422 117.004 C 270.422 116.215 271.068 115.57 271.857 115.57 L 274.818 115.57 C 275.607 115.57 276.253 116.215 276.253 117.004 L 276.253 119.873 Z M 283.423 127.044 C 283.423 127.832 282.778 128.477 281.989 128.477 L 279.028 128.477 C 278.238 128.477 277.593 127.832 277.593 127.044 L 277.593 124.175 C 277.593 123.386 278.238 122.741 279.028 122.741 L 281.989 122.741 C 282.778 122.741 283.423 123.386 283.423 124.175 L 283.423 127.044 Z M 276.253 127.044 C 276.253 127.832 275.607 128.477 274.818 128.477 L 271.857 128.477 C 271.068 128.477 270.422 127.832 270.422 127.044 L 270.422 124.175 C 270.422 123.386 271.068 122.741 271.857 122.741 L 274.818 122.741 C 275.607 122.741 276.253 123.386 276.253 124.175 L 276.253 127.044 Z M 283.423 134.163 C 283.423 134.953 282.778 135.598 281.989 135.598 L 279.028 135.598 C 278.238 135.598 277.593 134.953 277.593 134.163 L 277.593 131.296 C 277.593 130.507 278.238 129.861 279.028 129.861 L 281.989 129.861 C 282.778 129.861 283.423 130.507 283.423 131.296 L 283.423 134.163 Z M 276.253 134.163 C 276.253 134.953 275.607 135.598 274.818 135.598 L 271.857 135.598 C 271.068 135.598 270.422 134.953 270.422 134.163 L 270.422 131.296 C 270.422 130.507 271.068 129.861 271.857 129.861 L 274.818 129.861 C 275.607 129.861 276.253 130.507 276.253 131.296 L 276.253 134.163 Z M 283.423 155.655 C 283.423 156.444 282.778 157.089 281.989 157.089 L 279.028 157.089 C 278.238 157.089 277.593 156.444 277.593 155.655 L 277.593 152.786 C 277.593 151.998 278.238 151.352 279.028 151.352 L 281.989 151.352 C 282.778 151.352 283.423 151.998 283.423 152.786 L 283.423 155.655 Z M 276.253 155.655 C 276.253 156.444 275.607 157.089 274.818 157.089 L 271.857 157.089 C 271.068 157.089 270.422 156.444 270.422 155.655 L 270.422 152.786 C 270.422 151.998 271.068 151.352 271.857 151.352 L 274.818 151.352 C 275.607 151.352 276.253 151.998 276.253 152.786 L 276.253 155.655 Z M 283.423 162.826 C 283.423 163.615 282.778 164.26 281.989 164.26 L 279.028 164.26 C 278.238 164.26 277.593 163.615 277.593 162.826 L 277.593 159.957 C 277.593 159.169 278.238 158.523 279.028 158.523 L 281.989 158.523 C 282.778 158.523 283.423 159.169 283.423 159.957 L 283.423 162.826 Z M 276.253 162.826 C 276.253 163.615 275.607 164.26 274.818 164.26 L 271.857 164.26 C 271.068 164.26 270.422 163.615 270.422 162.826 L 270.422 159.957 C 270.422 159.169 271.068 158.523 271.857 158.523 L 274.818 158.523 C 275.607 158.523 276.253 159.169 276.253 159.957 L 276.253 162.826 Z M 283.423 169.947 C 283.423 170.735 282.778 171.38 281.989 171.38 L 279.028 171.38 C 278.238 171.38 277.593 170.735 277.593 169.947 L 277.593 167.078 C 277.593 166.289 278.238 165.643 279.028 165.643 L 281.989 165.643 C 282.778 165.643 283.423 166.289 283.423 167.078 L 283.423 169.947 Z M 276.253 169.947 C 276.253 170.735 275.607 171.38 274.818 171.38 L 271.857 171.38 C 271.068 171.38 270.422 170.735 270.422 169.947 L 270.422 167.078 C 270.422 166.289 271.068 165.643 271.857 165.643 L 274.818 165.643 C 275.607 165.643 276.253 166.289 276.253 167.078 L 276.253 169.947 Z M 218.914 226.022 C 218.914 226.811 218.269 227.456 217.48 227.456 L 214.518 227.456 C 213.73 227.456 213.085 226.811 213.085 226.022 L 213.085 223.154 C 213.085 222.365 213.73 221.719 214.518 221.719 L 217.48 221.719 C 218.269 221.719 218.914 222.365 218.914 223.154 L 218.914 226.022 Z M 211.743 226.022 C 211.743 226.811 211.098 227.456 210.31 227.456 L 207.347 227.456 C 206.559 227.456 205.914 226.811 205.914 226.022 L 205.914 223.154 C 205.914 222.365 206.559 221.719 207.347 221.719 L 210.31 221.719 C 211.098 221.719 211.743 222.365 211.743 223.154 L 211.743 226.022 Z M 218.914 233.192 C 218.914 233.982 218.269 234.627 217.48 234.627 L 214.518 234.627 C 213.73 234.627 213.085 233.982 213.085 233.192 L 213.085 230.325 C 213.085 229.536 213.73 228.89 214.518 228.89 L 217.48 228.89 C 218.269 228.89 218.914 229.536 218.914 230.325 L 218.914 233.192 Z M 211.743 233.192 C 211.743 233.982 211.098 234.627 210.31 234.627 L 207.347 234.627 C 206.559 234.627 205.914 233.982 205.914 233.192 L 205.914 230.325 C 205.914 229.536 206.559 228.89 207.347 228.89 L 210.31 228.89 C 211.098 228.89 211.743 229.536 211.743 230.325 L 211.743 233.192 Z M 218.914 240.313 C 218.914 241.102 218.269 241.747 217.48 241.747 L 214.518 241.747 C 213.73 241.747 213.085 241.102 213.085 240.313 L 213.085 237.445 C 213.085 236.657 213.73 236.011 214.518 236.011 L 217.48 236.011 C 218.269 236.011 218.914 236.657 218.914 237.445 L 218.914 240.313 Z M 211.743 240.313 C 211.743 241.102 211.098 241.747 210.31 241.747 L 207.347 241.747 C 206.559 241.747 205.914 241.102 205.914 240.313 L 205.914 237.445 C 205.914 236.657 206.559 236.011 207.347 236.011 L 210.31 236.011 C 211.098 236.011 211.743 236.657 211.743 237.445 L 211.743 240.313 Z M 153.18 275.551 C 153.18 276.339 152.534 276.985 151.746 276.985 L 148.791 276.985 C 148.002 276.985 147.357 276.339 147.357 275.551 L 147.357 272.682 C 147.357 271.893 148.002 271.248 148.791 271.248 L 151.775 271.248 C 152.563 271.248 153.208 271.893 153.208 272.682 L 153.208 275.551 Z M 146.009 275.551 C 146.009 276.339 145.363 276.985 144.575 276.985 L 141.613 276.985 C 140.825 276.985 140.179 276.339 140.179 275.551 L 140.179 272.682 C 140.179 271.893 140.825 271.248 141.613 271.248 L 144.575 271.248 C 145.363 271.248 146.009 271.893 146.009 272.682 L 146.009 275.551 Z M 138.838 275.551 C 138.838 276.339 138.192 276.985 137.404 276.985 L 134.442 276.985 C 133.654 276.985 133.008 276.339 133.008 275.551 L 133.008 272.682 C 133.008 271.893 133.654 271.248 134.442 271.248 L 137.404 271.248 C 138.192 271.248 138.838 271.893 138.838 272.682 L 138.838 275.551 Z" stroke-linecap="round"/>
      </g>
    </g>
  </g>
</svg>